<svg xmlns="http://www.w3.org/2000/svg" xmlns:xlink="http://www.w3.org/1999/xlink" width="500" zoomAndPan="magnify" viewBox="0 0 375 374.999991" height="500" preserveAspectRatio="xMidYMid meet" version="1.0"><defs><g/></defs><rect x="-37.5" width="450" fill="#ffffff" y="-37.499999" height="449.999989" fill-opacity="1"/><rect x="-37.5" width="450" fill="#1e3d34" y="-37.499999" height="449.999989" fill-opacity="1"/><g fill="#ffffff" fill-opacity="0.4"><g transform="translate(38.087567, 201.821368)"><g><path d="M 54.46875 -73.125 C 56.664062 -73.125 58.523438 -72.703125 60.046875 -71.859375 C 61.566406 -71.015625 62.789062 -69.914062 63.71875 -68.5625 C 64.65625 -67.207031 65.332031 -65.734375 65.75 -64.140625 C 66.175781 -62.554688 66.390625 -61.015625 66.390625 -59.515625 C 66.390625 -56.429688 65.910156 -52.914062 64.953125 -48.96875 C 63.992188 -45.019531 62.578125 -40.914062 60.703125 -36.65625 C 58.835938 -32.40625 56.570312 -28.296875 53.90625 -24.328125 C 51.25 -20.359375 48.210938 -16.757812 44.796875 -13.53125 C 41.390625 -10.300781 37.648438 -7.738281 33.578125 -5.84375 C 29.515625 -3.957031 25.144531 -3.015625 20.46875 -3.015625 C 19.070312 -3.015625 17.707031 -3.140625 16.375 -3.390625 C 15.039062 -3.648438 13.71875 -4.015625 12.40625 -4.484375 C 11.707031 -2.378906 11.066406 -0.289062 10.484375 1.78125 C 9.898438 3.863281 9.347656 5.890625 8.828125 7.859375 C 8.597656 8.835938 8.34375 10.117188 8.0625 11.703125 C 7.78125 13.296875 7.519531 15.023438 7.28125 16.890625 C 7.050781 18.765625 6.878906 20.585938 6.765625 22.359375 C 6.648438 24.140625 6.59375 25.679688 6.59375 26.984375 C 6.59375 27.503906 6.320312 27.679688 5.78125 27.515625 C 5.25 27.347656 4.640625 27.007812 3.953125 26.5 C 3.273438 25.988281 2.664062 25.425781 2.125 24.8125 C 1.59375 24.207031 1.328125 23.695312 1.328125 23.28125 C 1.285156 18.507812 1.585938 13.378906 2.234375 7.890625 C 2.890625 2.398438 3.804688 -3.171875 4.984375 -8.828125 C 2.734375 -10.609375 0.863281 -12.664062 -0.625 -15 C -2.125 -17.34375 -3.0625 -19.679688 -3.4375 -22.015625 C -3.53125 -22.578125 -3.390625 -22.8125 -3.015625 -22.71875 C -2.640625 -22.625 -2.171875 -22.332031 -1.609375 -21.84375 C -1.046875 -21.351562 -0.554688 -20.789062 -0.140625 -20.15625 C 0.273438 -19.519531 0.484375 -18.945312 0.484375 -18.4375 C 0.484375 -17.40625 0.753906 -16.375 1.296875 -15.34375 C 1.835938 -14.320312 2.523438 -13.414062 3.359375 -12.625 C 3.597656 -12.4375 3.878906 -12.15625 4.203125 -11.78125 C 4.535156 -11.40625 4.929688 -11.007812 5.390625 -10.59375 C 6.753906 -16.851562 8.3125 -23.039062 10.0625 -29.15625 C 11.8125 -35.28125 13.65625 -41.085938 15.59375 -46.578125 C 17.539062 -52.078125 19.425781 -57.007812 21.25 -61.375 C 23.070312 -65.75 24.738281 -69.3125 26.25 -72.0625 C 27.769531 -74.820312 28.972656 -76.53125 29.859375 -77.1875 C 30.191406 -77.425781 30.773438 -77.332031 31.609375 -76.90625 C 32.453125 -76.488281 33.304688 -75.941406 34.171875 -75.265625 C 35.035156 -74.585938 35.710938 -73.957031 36.203125 -73.375 C 36.703125 -72.789062 36.738281 -72.425781 36.3125 -72.28125 C 35.425781 -71.957031 34.503906 -71.476562 33.546875 -70.84375 C 32.585938 -70.21875 31.59375 -68.945312 30.5625 -67.03125 C 28 -62.207031 25.414062 -56.828125 22.8125 -50.890625 C 20.21875 -44.960938 17.785156 -38.398438 15.515625 -31.203125 C 13.253906 -24.003906 11.332031 -16.082031 9.75 -7.4375 C 9.976562 -7.34375 10.207031 -7.222656 10.4375 -7.078125 C 10.675781 -6.941406 10.9375 -6.828125 11.21875 -6.734375 C 12.894531 -11.492188 14.75 -16.429688 16.78125 -21.546875 C 18.820312 -26.671875 21.007812 -31.707031 23.34375 -36.65625 C 25.6875 -41.613281 28.128906 -46.289062 30.671875 -50.6875 C 33.222656 -55.082031 35.828125 -58.960938 38.484375 -62.328125 C 41.148438 -65.691406 43.828125 -68.332031 46.515625 -70.25 C 49.203125 -72.164062 51.851562 -73.125 54.46875 -73.125 Z M 17.8125 -5.46875 C 21.5 -5.46875 25.035156 -6.203125 28.421875 -7.671875 C 31.816406 -9.148438 35.019531 -11.160156 38.03125 -13.703125 C 41.050781 -16.253906 43.832031 -19.164062 46.375 -22.4375 C 48.925781 -25.707031 51.207031 -29.164062 53.21875 -32.8125 C 55.226562 -36.457031 56.941406 -40.101562 58.359375 -43.75 C 59.785156 -47.394531 60.875 -50.875 61.625 -54.1875 C 62.375 -57.507812 62.75 -60.457031 62.75 -63.03125 C 62.75 -65.082031 62.289062 -66.804688 61.375 -68.203125 C 60.46875 -69.609375 58.960938 -70.3125 56.859375 -70.3125 C 54.335938 -70.3125 51.742188 -69.4375 49.078125 -67.6875 C 46.410156 -65.9375 43.722656 -63.492188 41.015625 -60.359375 C 38.304688 -57.234375 35.640625 -53.613281 33.015625 -49.5 C 30.398438 -45.382812 27.875 -40.929688 25.4375 -36.140625 C 23.007812 -31.347656 20.742188 -26.40625 18.640625 -21.3125 C 16.546875 -16.21875 14.65625 -11.171875 12.96875 -6.171875 C 13.664062 -5.984375 14.421875 -5.816406 15.234375 -5.671875 C 16.054688 -5.535156 16.914062 -5.46875 17.8125 -5.46875 Z M 8.203125 2.3125 C 8.898438 -0.0703125 9.71875 -2.597656 10.65625 -5.265625 C 10.46875 -5.347656 10.269531 -5.445312 10.0625 -5.5625 C 9.851562 -5.6875 9.65625 -5.796875 9.46875 -5.890625 C 9 -3.222656 8.578125 -0.488281 8.203125 2.3125 Z M 8.203125 2.3125 "/></g></g></g><g fill="#ffffff" fill-opacity="0.4"><g transform="translate(90.66369, 201.821368)"><g><path d="M 4.484375 4 C 4.203125 4.695312 3.78125 4.925781 3.21875 4.6875 C 2.664062 4.457031 2.109375 3.976562 1.546875 3.25 C 0.984375 2.53125 0.535156 1.738281 0.203125 0.875 C -0.117188 0.0078125 -0.1875 -0.703125 0 -1.265625 C 0.132812 -1.640625 0.4375 -2.570312 0.90625 -4.0625 C 1.375 -5.5625 1.945312 -7.375 2.625 -9.5 C 3.300781 -11.625 4 -13.898438 4.71875 -16.328125 C 5.445312 -18.765625 6.128906 -21.128906 6.765625 -23.421875 C 7.398438 -25.710938 7.914062 -27.753906 8.3125 -29.546875 C 8.707031 -31.347656 8.90625 -32.671875 8.90625 -33.515625 C 8.90625 -33.929688 9.148438 -34.054688 9.640625 -33.890625 C 10.128906 -33.734375 10.6875 -33.382812 11.3125 -32.84375 C 11.945312 -32.3125 12.472656 -31.726562 12.890625 -31.09375 C 13.316406 -30.457031 13.460938 -29.882812 13.328125 -29.375 C 13.234375 -29.050781 12.925781 -28.148438 12.40625 -26.671875 C 11.894531 -25.203125 11.273438 -23.414062 10.546875 -21.3125 C 9.828125 -19.207031 9.09375 -17.054688 8.34375 -14.859375 C 7.59375 -12.660156 6.925781 -10.671875 6.34375 -8.890625 C 5.757812 -7.117188 5.375 -5.773438 5.1875 -4.859375 C 5 -3.953125 5.09375 -3.78125 5.46875 -4.34375 C 5.9375 -5 6.679688 -6.070312 7.703125 -7.5625 C 8.734375 -9.0625 9.914062 -10.722656 11.25 -12.546875 C 12.582031 -14.367188 13.960938 -16.117188 15.390625 -17.796875 C 16.816406 -19.484375 18.179688 -20.875 19.484375 -21.96875 C 20.796875 -23.070312 21.894531 -23.601562 22.78125 -23.5625 C 23.769531 -23.5625 24.539062 -23.066406 25.09375 -22.078125 C 25.65625 -21.097656 26.109375 -19.988281 26.453125 -18.75 C 26.804688 -17.507812 27.148438 -16.445312 27.484375 -15.5625 C 27.859375 -14.675781 28.253906 -14.207031 28.671875 -14.15625 C 29.367188 -14.0625 30.265625 -14.25 31.359375 -14.71875 C 32.460938 -15.1875 33.644531 -15.804688 34.90625 -16.578125 C 36.175781 -17.347656 37.394531 -18.15625 38.5625 -19 C 39.726562 -19.84375 40.742188 -20.613281 41.609375 -21.3125 C 42.472656 -22.007812 43.046875 -22.476562 43.328125 -22.71875 C 44.078125 -23.375 44.578125 -23.453125 44.828125 -22.953125 C 45.085938 -22.460938 44.890625 -21.941406 44.234375 -21.390625 C 43.953125 -21.148438 43.414062 -20.65625 42.625 -19.90625 C 41.832031 -19.164062 40.894531 -18.316406 39.8125 -17.359375 C 38.738281 -16.398438 37.628906 -15.453125 36.484375 -14.515625 C 35.347656 -13.578125 34.285156 -12.800781 33.296875 -12.1875 C 32.316406 -11.582031 31.523438 -11.257812 30.921875 -11.21875 C 29.234375 -11.164062 27.875 -11.6875 26.84375 -12.78125 C 25.820312 -13.882812 25.050781 -15.066406 24.53125 -16.328125 C 24.113281 -17.410156 23.773438 -18.347656 23.515625 -19.140625 C 23.265625 -19.929688 22.878906 -20.304688 22.359375 -20.265625 C 21.472656 -20.171875 20.457031 -19.582031 19.3125 -18.5 C 18.164062 -17.425781 16.945312 -16.046875 15.65625 -14.359375 C 14.375 -12.679688 13.113281 -10.882812 11.875 -8.96875 C 10.644531 -7.050781 9.503906 -5.179688 8.453125 -3.359375 C 7.398438 -1.535156 6.519531 0.0234375 5.8125 1.328125 C 5.113281 2.640625 4.671875 3.53125 4.484375 4 Z M 4.484375 4 "/></g></g></g><g fill="#ffffff" fill-opacity="0.4"><g transform="translate(125.434031, 201.821368)"><g><path d="M 38.625 -21.9375 C 38.769531 -22.175781 39.03125 -22.257812 39.40625 -22.1875 C 39.78125 -22.113281 40.09375 -21.945312 40.34375 -21.6875 C 40.601562 -21.4375 40.617188 -21.171875 40.390625 -20.890625 C 39.546875 -19.722656 38.375 -18.367188 36.875 -16.828125 C 35.382812 -15.285156 33.617188 -13.742188 31.578125 -12.203125 C 29.546875 -10.660156 27.300781 -9.335938 24.84375 -8.234375 C 22.394531 -7.140625 19.789062 -6.453125 17.03125 -6.171875 C 15.914062 -4.109375 14.722656 -2.222656 13.453125 -0.515625 C 12.191406 1.179688 10.953125 2.519531 9.734375 3.5 C 8.523438 4.488281 7.40625 4.984375 6.375 4.984375 C 5.351562 4.984375 4.394531 4.640625 3.5 3.953125 C 2.613281 3.273438 1.898438 2.445312 1.359375 1.46875 C 0.828125 0.488281 0.5625 -0.46875 0.5625 -1.40625 C 0.601562 -2.757812 0.765625 -4.148438 1.046875 -5.578125 C 1.328125 -7.003906 1.703125 -8.414062 2.171875 -9.8125 C 0.910156 -10.84375 0 -12 -0.5625 -13.28125 C -1.125 -14.570312 -1.40625 -15.867188 -1.40625 -17.171875 C -1.40625 -19.554688 -0.878906 -21.71875 0.171875 -23.65625 C 1.222656 -25.601562 2.585938 -27.273438 4.265625 -28.671875 C 5.953125 -30.078125 7.773438 -31.148438 9.734375 -31.890625 C 11.703125 -32.640625 13.625 -33.015625 15.5 -33.015625 C 17.550781 -33.015625 19.320312 -32.347656 20.8125 -31.015625 C 22.3125 -29.691406 23.0625 -27.953125 23.0625 -25.796875 C 23.0625 -23.273438 22.570312 -20.398438 21.59375 -17.171875 C 20.613281 -13.953125 19.375 -10.820312 17.875 -7.78125 C 20.164062 -8.101562 22.582031 -8.828125 25.125 -9.953125 C 27.675781 -11.078125 30.128906 -12.628906 32.484375 -14.609375 C 34.847656 -16.597656 36.894531 -19.039062 38.625 -21.9375 Z M 2.453125 -15.5625 C 2.453125 -14.4375 2.6875 -13.410156 3.15625 -12.484375 C 4.039062 -14.535156 4.984375 -16.398438 5.984375 -18.078125 C 6.992188 -19.765625 7.96875 -21.109375 8.90625 -22.109375 C 9.84375 -23.117188 10.566406 -23.625 11.078125 -23.625 C 12.335938 -23.625 13.25 -23.226562 13.8125 -22.4375 C 14.375 -21.644531 14.488281 -20.96875 14.15625 -20.40625 C 13.269531 -18.769531 12.320312 -16.898438 11.3125 -14.796875 C 10.3125 -12.691406 9.390625 -10.609375 8.546875 -8.546875 C 9.484375 -8.265625 10.523438 -8.039062 11.671875 -7.875 C 12.816406 -7.71875 14.09375 -7.640625 15.5 -7.640625 L 15.921875 -7.640625 C 17.410156 -10.535156 18.65625 -13.664062 19.65625 -17.03125 C 20.664062 -20.394531 21.171875 -23.625 21.171875 -26.71875 C 21.171875 -28.164062 20.785156 -29.304688 20.015625 -30.140625 C 19.242188 -30.984375 18.25 -31.40625 17.03125 -31.40625 C 15.394531 -31.40625 13.84375 -30.984375 12.375 -30.140625 C 10.90625 -29.304688 9.5625 -28.234375 8.34375 -26.921875 C 7.125 -25.609375 6.070312 -24.21875 5.1875 -22.75 C 4.300781 -21.28125 3.625 -19.898438 3.15625 -18.609375 C 2.6875 -17.328125 2.453125 -16.3125 2.453125 -15.5625 Z M 6.375 3.21875 C 7.5 3.21875 8.867188 2.34375 10.484375 0.59375 C 12.097656 -1.15625 13.648438 -3.382812 15.140625 -6.09375 L 15 -6.09375 C 12.238281 -6.09375 9.878906 -6.375 7.921875 -6.9375 C 7.222656 -5.113281 6.640625 -3.429688 6.171875 -1.890625 C 5.703125 -0.347656 5.46875 0.882812 5.46875 1.8125 C 5.46875 2.75 5.769531 3.21875 6.375 3.21875 Z M 6.375 3.21875 "/></g></g></g><g fill="#ffffff" fill-opacity="0.4"><g transform="translate(156.208588, 201.821368)"><g><path d="M 48.515625 -20.046875 C 48.742188 -20.328125 49.175781 -20.429688 49.8125 -20.359375 C 50.445312 -20.296875 50.960938 -20.097656 51.359375 -19.765625 C 51.753906 -19.441406 51.695312 -19 51.1875 -18.4375 C 50.8125 -18.019531 50.097656 -17.34375 49.046875 -16.40625 C 47.992188 -15.46875 46.753906 -14.484375 45.328125 -13.453125 C 43.898438 -12.429688 42.4375 -11.554688 40.9375 -10.828125 C 39.445312 -10.109375 38.070312 -9.75 36.8125 -9.75 C 35.40625 -9.75 34.082031 -10.25 32.84375 -11.25 C 31.601562 -12.257812 30.539062 -13.441406 29.65625 -14.796875 C 28.34375 -12.597656 26.84375 -10.1875 25.15625 -7.5625 C 23.476562 -4.945312 21.726562 -2.359375 19.90625 0.203125 C 18.082031 2.773438 16.304688 5.113281 14.578125 7.21875 C 12.847656 9.320312 11.28125 11.015625 9.875 12.296875 C 8.476562 13.585938 7.335938 14.234375 6.453125 14.234375 C 5.609375 14.234375 4.671875 13.941406 3.640625 13.359375 C 2.617188 12.773438 1.734375 11.769531 0.984375 10.34375 C 0.234375 8.914062 -0.140625 6.914062 -0.140625 4.34375 C -0.140625 2.800781 0.113281 0.875 0.625 -1.4375 C 1.144531 -3.75 1.773438 -6.164062 2.515625 -8.6875 C 3.265625 -11.21875 4 -13.59375 4.71875 -15.8125 C 5.445312 -18.03125 6.066406 -19.851562 6.578125 -21.28125 C 7.097656 -22.707031 7.359375 -23.46875 7.359375 -23.5625 C 7.359375 -23.789062 7.378906 -24.101562 7.421875 -24.5 C 7.472656 -24.894531 7.382812 -25.539062 7.15625 -26.4375 C 7.0625 -26.851562 7.304688 -27.035156 7.890625 -26.984375 C 8.472656 -26.941406 9.179688 -26.707031 10.015625 -26.28125 C 10.859375 -25.863281 11.609375 -25.289062 12.265625 -24.5625 C 12.921875 -23.84375 13.25 -23.015625 13.25 -22.078125 C 13.25 -21.335938 12.921875 -20.191406 12.265625 -18.640625 C 11.609375 -17.097656 10.8125 -15.300781 9.875 -13.25 C 8.945312 -11.195312 8.003906 -9.007812 7.046875 -6.6875 C 6.085938 -4.375 5.28125 -2.050781 4.625 0.28125 C 3.96875 2.613281 3.640625 4.832031 3.640625 6.9375 C 3.640625 9.601562 4.410156 10.867188 5.953125 10.734375 C 7.128906 10.585938 8.441406 9.914062 9.890625 8.71875 C 11.335938 7.53125 12.851562 5.96875 14.4375 4.03125 C 16.03125 2.09375 17.644531 -0.0664062 19.28125 -2.453125 C 20.914062 -4.835938 22.503906 -7.300781 24.046875 -9.84375 C 25.585938 -12.394531 27.035156 -14.863281 28.390625 -17.25 C 28.109375 -17.945312 27.882812 -18.625 27.71875 -19.28125 C 27.5625 -19.9375 27.484375 -20.546875 27.484375 -21.109375 C 27.484375 -22.316406 27.71875 -23.410156 28.1875 -24.390625 C 28.65625 -25.378906 29.257812 -25.875 30 -25.875 C 30.800781 -25.875 31.65625 -25.640625 32.5625 -25.171875 C 33.476562 -24.703125 33.9375 -24.023438 33.9375 -23.140625 C 33.9375 -22.804688 33.675781 -22.125 33.15625 -21.09375 C 32.644531 -20.070312 31.945312 -18.765625 31.0625 -17.171875 C 31.4375 -15.867188 32.03125 -14.703125 32.84375 -13.671875 C 33.664062 -12.640625 34.820312 -12.125 36.3125 -12.125 C 37.8125 -12.125 39.25 -12.484375 40.625 -13.203125 C 42.007812 -13.929688 43.257812 -14.785156 44.375 -15.765625 C 45.5 -16.753906 46.421875 -17.664062 47.140625 -18.5 C 47.867188 -19.34375 48.328125 -19.859375 48.515625 -20.046875 Z M 48.515625 -20.046875 "/></g></g></g><g fill="#ffffff" fill-opacity="0.4"><g transform="translate(196.797356, 201.821368)"><g><path d="M 39.328125 -21.109375 C 39.753906 -21.617188 40.101562 -21.769531 40.375 -21.5625 C 40.65625 -21.351562 40.816406 -21 40.859375 -20.5 C 40.910156 -20.007812 40.726562 -19.554688 40.3125 -19.140625 C 39.613281 -18.390625 38.5625 -17.273438 37.15625 -15.796875 C 35.75 -14.328125 34.125 -12.660156 32.28125 -10.796875 C 30.4375 -8.929688 28.5 -7.039062 26.46875 -5.125 C 24.4375 -3.207031 22.414062 -1.441406 20.40625 0.171875 C 18.394531 1.785156 16.535156 3.09375 14.828125 4.09375 C 13.117188 5.101562 11.660156 5.609375 10.453125 5.609375 C 7.785156 5.609375 5.570312 4.800781 3.8125 3.1875 C 2.0625 1.570312 1.1875 -0.867188 1.1875 -4.140625 C 1.1875 -6.242188 1.523438 -8.414062 2.203125 -10.65625 C 2.878906 -12.894531 3.789062 -15.054688 4.9375 -17.140625 C 6.082031 -19.222656 7.378906 -21.101562 8.828125 -22.78125 C 10.273438 -24.46875 11.796875 -25.800781 13.390625 -26.78125 C 14.984375 -27.757812 16.550781 -28.25 18.09375 -28.25 C 19.769531 -28.25 21.050781 -27.863281 21.9375 -27.09375 C 22.832031 -26.320312 23.28125 -25.304688 23.28125 -24.046875 C 23.28125 -22.972656 22.90625 -21.78125 22.15625 -20.46875 C 21.40625 -19.164062 20.457031 -18.054688 19.3125 -17.140625 C 18.164062 -16.234375 16.941406 -15.78125 15.640625 -15.78125 C 14.460938 -15.78125 13.546875 -16.070312 12.890625 -16.65625 C 12.242188 -17.238281 11.640625 -17.878906 11.078125 -18.578125 C 9.484375 -16.191406 8.113281 -13.46875 6.96875 -10.40625 C 5.832031 -7.34375 5.265625 -4.296875 5.265625 -1.265625 C 5.265625 0.328125 5.632812 1.613281 6.375 2.59375 C 7.125 3.570312 8.222656 4.0625 9.671875 4.0625 C 10.929688 4.019531 12.492188 3.4375 14.359375 2.3125 C 16.234375 1.1875 18.234375 -0.257812 20.359375 -2.03125 C 22.492188 -3.8125 24.609375 -5.726562 26.703125 -7.78125 C 28.804688 -9.832031 30.757812 -11.804688 32.5625 -13.703125 C 34.363281 -15.597656 35.867188 -17.222656 37.078125 -18.578125 C 38.296875 -19.929688 39.046875 -20.773438 39.328125 -21.109375 Z M 20.1875 -26.21875 C 19.019531 -26.21875 17.664062 -25.585938 16.125 -24.328125 C 14.582031 -23.066406 13.0625 -21.40625 11.5625 -19.34375 C 11.9375 -18.882812 12.367188 -18.515625 12.859375 -18.234375 C 13.347656 -17.953125 13.804688 -17.8125 14.234375 -17.8125 C 14.835938 -17.8125 15.675781 -18.148438 16.75 -18.828125 C 17.832031 -19.503906 18.816406 -20.414062 19.703125 -21.5625 C 20.585938 -22.707031 21.03125 -23.957031 21.03125 -25.3125 C 21.03125 -25.914062 20.75 -26.21875 20.1875 -26.21875 Z M 20.1875 -26.21875 "/></g></g></g><g fill="#ffffff" fill-opacity="0.4"><g transform="translate(228.693537, 201.821368)"><g><path d="M 4.484375 4 C 4.203125 4.695312 3.78125 4.925781 3.21875 4.6875 C 2.664062 4.457031 2.109375 3.976562 1.546875 3.25 C 0.984375 2.53125 0.535156 1.738281 0.203125 0.875 C -0.117188 0.0078125 -0.1875 -0.703125 0 -1.265625 C 0.132812 -1.640625 0.4375 -2.570312 0.90625 -4.0625 C 1.375 -5.5625 1.945312 -7.375 2.625 -9.5 C 3.300781 -11.625 4 -13.898438 4.71875 -16.328125 C 5.445312 -18.765625 6.128906 -21.128906 6.765625 -23.421875 C 7.398438 -25.710938 7.914062 -27.753906 8.3125 -29.546875 C 8.707031 -31.347656 8.90625 -32.671875 8.90625 -33.515625 C 8.90625 -33.929688 9.148438 -34.054688 9.640625 -33.890625 C 10.128906 -33.734375 10.6875 -33.382812 11.3125 -32.84375 C 11.945312 -32.3125 12.472656 -31.726562 12.890625 -31.09375 C 13.316406 -30.457031 13.460938 -29.882812 13.328125 -29.375 C 13.234375 -29.050781 12.925781 -28.148438 12.40625 -26.671875 C 11.894531 -25.203125 11.273438 -23.414062 10.546875 -21.3125 C 9.828125 -19.207031 9.09375 -17.054688 8.34375 -14.859375 C 7.59375 -12.660156 6.925781 -10.671875 6.34375 -8.890625 C 5.757812 -7.117188 5.375 -5.773438 5.1875 -4.859375 C 5 -3.953125 5.09375 -3.78125 5.46875 -4.34375 C 5.9375 -5 6.679688 -6.070312 7.703125 -7.5625 C 8.734375 -9.0625 9.914062 -10.722656 11.25 -12.546875 C 12.582031 -14.367188 13.960938 -16.117188 15.390625 -17.796875 C 16.816406 -19.484375 18.179688 -20.875 19.484375 -21.96875 C 20.796875 -23.070312 21.894531 -23.601562 22.78125 -23.5625 C 23.769531 -23.5625 24.539062 -23.066406 25.09375 -22.078125 C 25.65625 -21.097656 26.109375 -19.988281 26.453125 -18.75 C 26.804688 -17.507812 27.148438 -16.445312 27.484375 -15.5625 C 27.859375 -14.675781 28.253906 -14.207031 28.671875 -14.15625 C 29.367188 -14.0625 30.265625 -14.25 31.359375 -14.71875 C 32.460938 -15.1875 33.644531 -15.804688 34.90625 -16.578125 C 36.175781 -17.347656 37.394531 -18.15625 38.5625 -19 C 39.726562 -19.84375 40.742188 -20.613281 41.609375 -21.3125 C 42.472656 -22.007812 43.046875 -22.476562 43.328125 -22.71875 C 44.078125 -23.375 44.578125 -23.453125 44.828125 -22.953125 C 45.085938 -22.460938 44.890625 -21.941406 44.234375 -21.390625 C 43.953125 -21.148438 43.414062 -20.65625 42.625 -19.90625 C 41.832031 -19.164062 40.894531 -18.316406 39.8125 -17.359375 C 38.738281 -16.398438 37.628906 -15.453125 36.484375 -14.515625 C 35.347656 -13.578125 34.285156 -12.800781 33.296875 -12.1875 C 32.316406 -11.582031 31.523438 -11.257812 30.921875 -11.21875 C 29.234375 -11.164062 27.875 -11.6875 26.84375 -12.78125 C 25.820312 -13.882812 25.050781 -15.066406 24.53125 -16.328125 C 24.113281 -17.410156 23.773438 -18.347656 23.515625 -19.140625 C 23.265625 -19.929688 22.878906 -20.304688 22.359375 -20.265625 C 21.472656 -20.171875 20.457031 -19.582031 19.3125 -18.5 C 18.164062 -17.425781 16.945312 -16.046875 15.65625 -14.359375 C 14.375 -12.679688 13.113281 -10.882812 11.875 -8.96875 C 10.644531 -7.050781 9.503906 -5.179688 8.453125 -3.359375 C 7.398438 -1.535156 6.519531 0.0234375 5.8125 1.328125 C 5.113281 2.640625 4.671875 3.53125 4.484375 4 Z M 4.484375 4 "/></g></g></g><g fill="#ffffff" fill-opacity="0.4"><g transform="translate(263.463878, 201.821368)"><g><path d="M 52.71875 -20.265625 C 52.957031 -20.359375 53.238281 -20.265625 53.5625 -19.984375 C 53.882812 -19.703125 54.09375 -19.382812 54.1875 -19.03125 C 54.28125 -18.6875 54.070312 -18.421875 53.5625 -18.234375 C 51.226562 -17.429688 48.332031 -16.0625 44.875 -14.125 C 41.414062 -12.1875 37.835938 -9.976562 34.140625 -7.5 C 32.691406 -3.945312 31.007812 -0.523438 29.09375 2.765625 C 27.175781 6.066406 25.222656 9.023438 23.234375 11.640625 C 21.253906 14.253906 19.410156 16.332031 17.703125 17.875 C 15.992188 19.414062 14.648438 20.1875 13.671875 20.1875 C 13.253906 20.1875 12.566406 20.046875 11.609375 19.765625 C 10.648438 19.484375 9.769531 19.015625 8.96875 18.359375 C 8.175781 17.710938 7.78125 16.851562 7.78125 15.78125 C 7.78125 14.375 8.363281 12.769531 9.53125 10.96875 C 10.695312 9.164062 12.296875 7.238281 14.328125 5.1875 C 16.367188 3.132812 18.695312 1.046875 21.3125 -1.078125 C 23.925781 -3.210938 26.660156 -5.285156 29.515625 -7.296875 C 31.015625 -10.796875 32.242188 -14.15625 33.203125 -17.375 C 34.160156 -20.601562 34.640625 -23.296875 34.640625 -25.453125 C 34.640625 -25.828125 34.53125 -26.117188 34.3125 -26.328125 C 34.101562 -26.535156 33.671875 -26.640625 33.015625 -26.640625 C 31.660156 -26.640625 30.203125 -26.007812 28.640625 -24.75 C 27.078125 -23.488281 25.476562 -21.804688 23.84375 -19.703125 C 22.207031 -17.597656 20.582031 -15.234375 18.96875 -12.609375 C 17.351562 -9.992188 15.804688 -7.296875 14.328125 -4.515625 C 12.859375 -1.734375 11.519531 0.9375 10.3125 3.5 C 8.8125 6.675781 7.429688 9.816406 6.171875 12.921875 C 4.910156 16.035156 3.800781 18.863281 2.84375 21.40625 C 1.882812 23.957031 1.066406 25.992188 0.390625 27.515625 C -0.285156 29.035156 -0.789062 29.796875 -1.125 29.796875 C -1.539062 29.796875 -2.078125 29.722656 -2.734375 29.578125 C -3.390625 29.441406 -3.960938 29.160156 -4.453125 28.734375 C -4.941406 28.316406 -5.164062 27.664062 -5.125 26.78125 C -4.9375 23.976562 -4.429688 20.632812 -3.609375 16.75 C -2.796875 12.875 -1.769531 8.703125 -0.53125 4.234375 C 0.707031 -0.222656 2.050781 -4.765625 3.5 -9.390625 C 4.945312 -14.015625 6.394531 -18.476562 7.84375 -22.78125 C 9.300781 -27.082031 10.660156 -31.007812 11.921875 -34.5625 C 13.179688 -38.113281 14.226562 -41.046875 15.0625 -43.359375 C 15.90625 -45.671875 16.421875 -47.132812 16.609375 -47.75 C 16.890625 -48.582031 17.34375 -49.804688 17.96875 -51.421875 C 18.601562 -53.035156 19.316406 -54.785156 20.109375 -56.671875 C 20.910156 -58.566406 21.707031 -60.378906 22.5 -62.109375 C 23.300781 -63.847656 24.039062 -65.265625 24.71875 -66.359375 C 25.394531 -67.453125 25.894531 -68.023438 26.21875 -68.078125 C 27.101562 -68.171875 28.015625 -67.925781 28.953125 -67.34375 C 29.890625 -66.757812 30.660156 -66.09375 31.265625 -65.34375 C 31.878906 -64.59375 32.113281 -63.960938 31.96875 -63.453125 C 31.925781 -63.265625 31.644531 -63.21875 31.125 -63.3125 C 30.613281 -63.40625 30.101562 -63.265625 29.59375 -62.890625 C 28.5625 -62.140625 27.597656 -61.085938 26.703125 -59.734375 C 25.816406 -58.378906 24.863281 -56.578125 23.84375 -54.328125 C 23.601562 -53.816406 22.992188 -52.367188 22.015625 -49.984375 C 21.035156 -47.597656 19.816406 -44.488281 18.359375 -40.65625 C 16.910156 -36.832031 15.3125 -32.441406 13.5625 -27.484375 C 11.8125 -22.523438 10.007812 -17.207031 8.15625 -11.53125 C 6.3125 -5.851562 4.535156 0.046875 2.828125 6.171875 C 1.128906 12.296875 -0.421875 18.414062 -1.828125 24.53125 C -1.585938 24.113281 -1.101562 23.050781 -0.375 21.34375 C 0.34375 19.644531 1.257812 17.484375 2.375 14.859375 C 3.5 12.242188 4.785156 9.359375 6.234375 6.203125 C 7.679688 3.046875 9.25 -0.164062 10.9375 -3.4375 C 12.625 -6.707031 14.363281 -9.859375 16.15625 -12.890625 C 17.957031 -15.929688 19.78125 -18.65625 21.625 -21.0625 C 23.46875 -23.46875 25.289062 -25.382812 27.09375 -26.8125 C 28.894531 -28.238281 30.613281 -28.953125 32.25 -28.953125 C 33.695312 -28.953125 34.976562 -28.445312 36.09375 -27.4375 C 37.21875 -26.4375 37.78125 -25.117188 37.78125 -23.484375 C 37.78125 -21.617188 37.582031 -19.644531 37.1875 -17.5625 C 36.789062 -15.476562 36.242188 -13.382812 35.546875 -11.28125 C 38.722656 -13.34375 41.804688 -15.15625 44.796875 -16.71875 C 47.785156 -18.28125 50.425781 -19.460938 52.71875 -20.265625 Z M 12.484375 17.390625 C 13.742188 17.148438 15.222656 16.070312 16.921875 14.15625 C 18.628906 12.238281 20.40625 9.785156 22.25 6.796875 C 24.101562 3.804688 25.847656 0.628906 27.484375 -2.734375 C 24.441406 -0.441406 21.644531 1.859375 19.09375 4.171875 C 16.550781 6.484375 14.519531 8.65625 13 10.6875 C 11.488281 12.71875 10.734375 14.460938 10.734375 15.921875 C 10.734375 16.285156 10.867188 16.644531 11.140625 17 C 11.421875 17.351562 11.867188 17.484375 12.484375 17.390625 Z M 12.484375 17.390625 "/></g></g></g><g fill="#ffffff" fill-opacity="0.4"><g transform="translate(309.660767, 201.821368)"><g><path d="M 40.109375 -17.171875 C 40.335938 -17.265625 40.566406 -17.085938 40.796875 -16.640625 C 41.035156 -16.203125 41.035156 -15.9375 40.796875 -15.84375 C 38.835938 -15.1875 36.476562 -14.125 33.71875 -12.65625 C 30.96875 -11.1875 28 -9.421875 24.8125 -7.359375 C 21.632812 -5.304688 18.410156 -3.085938 15.140625 -0.703125 C 17.054688 0.328125 18.375 1.484375 19.09375 2.765625 C 19.820312 4.054688 20.1875 5.613281 20.1875 7.4375 C 20.1875 8.882812 19.679688 10.550781 18.671875 12.4375 C 17.671875 14.332031 16.328125 16.296875 14.640625 18.328125 C 12.960938 20.367188 11.082031 22.332031 9 24.21875 C 6.925781 26.113281 4.78125 27.820312 2.5625 29.34375 C 0.34375 30.863281 -1.804688 32.078125 -3.890625 32.984375 C -5.972656 33.898438 -7.832031 34.359375 -9.46875 34.359375 C -11.050781 34.359375 -12.320312 34.003906 -13.28125 33.296875 C -14.238281 32.597656 -14.925781 31.742188 -15.34375 30.734375 C -15.769531 29.734375 -15.984375 28.789062 -15.984375 27.90625 C -15.984375 26.363281 -15.289062 24.550781 -13.90625 22.46875 C -12.53125 20.382812 -10.640625 18.140625 -8.234375 15.734375 C -5.828125 13.328125 -3.101562 10.835938 -0.0625 8.265625 C 2.96875 5.703125 6.164062 3.203125 9.53125 0.765625 C 9.207031 0.671875 8.847656 0.578125 8.453125 0.484375 C 8.054688 0.390625 7.671875 0.296875 7.296875 0.203125 C 6.117188 -0.160156 4.875 -0.726562 3.5625 -1.5 C 2.257812 -2.28125 1.148438 -3.21875 0.234375 -4.3125 C -0.671875 -5.40625 -1.125 -6.585938 -1.125 -7.859375 C -1.125 -9.679688 -0.71875 -11.421875 0.09375 -13.078125 C 0.914062 -14.734375 1.957031 -16.285156 3.21875 -17.734375 C 4.488281 -19.179688 5.765625 -20.476562 7.046875 -21.625 C 8.328125 -22.769531 9.4375 -23.691406 10.375 -24.390625 C 11.21875 -24.953125 11.660156 -25.5625 11.703125 -26.21875 C 11.753906 -26.78125 12.296875 -27.296875 13.328125 -27.765625 C 14.910156 -28.460938 16.53125 -29.195312 18.1875 -29.96875 C 19.851562 -30.738281 21.082031 -31.125 21.875 -31.125 C 22.53125 -31.125 23.078125 -30.832031 23.515625 -30.25 C 23.960938 -29.664062 24.207031 -29.054688 24.25 -28.421875 C 24.300781 -27.796875 24.023438 -27.363281 23.421875 -27.125 C 22.109375 -26.664062 20.53125 -25.863281 18.6875 -24.71875 C 16.84375 -23.570312 14.9375 -22.226562 12.96875 -20.6875 C 11.007812 -19.144531 9.175781 -17.53125 7.46875 -15.84375 C 5.757812 -14.164062 4.367188 -12.539062 3.296875 -10.96875 C 2.222656 -9.40625 1.6875 -8.015625 1.6875 -6.796875 C 1.6875 -6.003906 2.128906 -5.363281 3.015625 -4.875 C 3.898438 -4.382812 4.992188 -3.984375 6.296875 -3.671875 C 7.609375 -3.367188 8.921875 -3.007812 10.234375 -2.59375 C 10.742188 -2.457031 11.222656 -2.304688 11.671875 -2.140625 C 12.117188 -1.972656 12.550781 -1.796875 12.96875 -1.609375 C 16.476562 -4.085938 19.925781 -6.378906 23.3125 -8.484375 C 26.695312 -10.585938 29.835938 -12.394531 32.734375 -13.90625 C 35.640625 -15.425781 38.097656 -16.515625 40.109375 -17.171875 Z M 16.75 3.859375 C 16.75 3.109375 16.335938 2.566406 15.515625 2.234375 C 14.703125 1.910156 13.644531 1.632812 12.34375 1.40625 C 8.976562 3.976562 5.726562 6.609375 2.59375 9.296875 C -0.539062 11.984375 -3.332031 14.597656 -5.78125 17.140625 C -8.238281 19.691406 -10.175781 22.03125 -11.59375 24.15625 C -13.019531 26.28125 -13.734375 28.066406 -13.734375 29.515625 C -13.734375 30.171875 -13.476562 30.789062 -12.96875 31.375 C -12.457031 31.957031 -11.664062 32.179688 -10.59375 32.046875 C -8.769531 31.804688 -6.835938 31.132812 -4.796875 30.03125 C -2.765625 28.9375 -0.722656 27.535156 1.328125 25.828125 C 3.390625 24.128906 5.34375 22.257812 7.1875 20.21875 C 9.03125 18.1875 10.664062 16.15625 12.09375 14.125 C 13.519531 12.09375 14.648438 10.175781 15.484375 8.375 C 16.328125 6.570312 16.75 5.066406 16.75 3.859375 Z M 16.75 3.859375 "/></g></g></g><g fill="#f4f1ed" fill-opacity="1"><g transform="translate(34.989147, 198.722946)"><g><path d="M 54.46875 -73.125 C 56.664062 -73.125 58.523438 -72.703125 60.046875 -71.859375 C 61.566406 -71.015625 62.789062 -69.914062 63.71875 -68.5625 C 64.65625 -67.207031 65.332031 -65.734375 65.75 -64.140625 C 66.175781 -62.554688 66.390625 -61.015625 66.390625 -59.515625 C 66.390625 -56.429688 65.910156 -52.914062 64.953125 -48.96875 C 63.992188 -45.019531 62.578125 -40.914062 60.703125 -36.65625 C 58.835938 -32.40625 56.570312 -28.296875 53.90625 -24.328125 C 51.25 -20.359375 48.210938 -16.757812 44.796875 -13.53125 C 41.390625 -10.300781 37.648438 -7.738281 33.578125 -5.84375 C 29.515625 -3.957031 25.144531 -3.015625 20.46875 -3.015625 C 19.070312 -3.015625 17.707031 -3.140625 16.375 -3.390625 C 15.039062 -3.648438 13.71875 -4.015625 12.40625 -4.484375 C 11.707031 -2.378906 11.066406 -0.289062 10.484375 1.78125 C 9.898438 3.863281 9.347656 5.890625 8.828125 7.859375 C 8.597656 8.835938 8.34375 10.117188 8.0625 11.703125 C 7.78125 13.296875 7.519531 15.023438 7.28125 16.890625 C 7.050781 18.765625 6.878906 20.585938 6.765625 22.359375 C 6.648438 24.140625 6.59375 25.679688 6.59375 26.984375 C 6.59375 27.503906 6.320312 27.679688 5.78125 27.515625 C 5.25 27.347656 4.640625 27.007812 3.953125 26.5 C 3.273438 25.988281 2.664062 25.425781 2.125 24.8125 C 1.59375 24.207031 1.328125 23.695312 1.328125 23.28125 C 1.285156 18.507812 1.585938 13.378906 2.234375 7.890625 C 2.890625 2.398438 3.804688 -3.171875 4.984375 -8.828125 C 2.734375 -10.609375 0.863281 -12.664062 -0.625 -15 C -2.125 -17.34375 -3.0625 -19.679688 -3.4375 -22.015625 C -3.53125 -22.578125 -3.390625 -22.8125 -3.015625 -22.71875 C -2.640625 -22.625 -2.171875 -22.332031 -1.609375 -21.84375 C -1.046875 -21.351562 -0.554688 -20.789062 -0.140625 -20.15625 C 0.273438 -19.519531 0.484375 -18.945312 0.484375 -18.4375 C 0.484375 -17.40625 0.753906 -16.375 1.296875 -15.34375 C 1.835938 -14.320312 2.523438 -13.414062 3.359375 -12.625 C 3.597656 -12.4375 3.878906 -12.15625 4.203125 -11.78125 C 4.535156 -11.40625 4.929688 -11.007812 5.390625 -10.59375 C 6.753906 -16.851562 8.3125 -23.039062 10.0625 -29.15625 C 11.8125 -35.28125 13.65625 -41.085938 15.59375 -46.578125 C 17.539062 -52.078125 19.425781 -57.007812 21.25 -61.375 C 23.070312 -65.75 24.738281 -69.3125 26.25 -72.0625 C 27.769531 -74.820312 28.972656 -76.53125 29.859375 -77.1875 C 30.191406 -77.425781 30.773438 -77.332031 31.609375 -76.90625 C 32.453125 -76.488281 33.304688 -75.941406 34.171875 -75.265625 C 35.035156 -74.585938 35.710938 -73.957031 36.203125 -73.375 C 36.703125 -72.789062 36.738281 -72.425781 36.3125 -72.28125 C 35.425781 -71.957031 34.503906 -71.476562 33.546875 -70.84375 C 32.585938 -70.21875 31.59375 -68.945312 30.5625 -67.03125 C 28 -62.207031 25.414062 -56.828125 22.8125 -50.890625 C 20.21875 -44.960938 17.785156 -38.398438 15.515625 -31.203125 C 13.253906 -24.003906 11.332031 -16.082031 9.75 -7.4375 C 9.976562 -7.34375 10.207031 -7.222656 10.4375 -7.078125 C 10.675781 -6.941406 10.9375 -6.828125 11.21875 -6.734375 C 12.894531 -11.492188 14.75 -16.429688 16.78125 -21.546875 C 18.820312 -26.671875 21.007812 -31.707031 23.34375 -36.65625 C 25.6875 -41.613281 28.128906 -46.289062 30.671875 -50.6875 C 33.222656 -55.082031 35.828125 -58.960938 38.484375 -62.328125 C 41.148438 -65.691406 43.828125 -68.332031 46.515625 -70.25 C 49.203125 -72.164062 51.851562 -73.125 54.46875 -73.125 Z M 17.8125 -5.46875 C 21.5 -5.46875 25.035156 -6.203125 28.421875 -7.671875 C 31.816406 -9.148438 35.019531 -11.160156 38.03125 -13.703125 C 41.050781 -16.253906 43.832031 -19.164062 46.375 -22.4375 C 48.925781 -25.707031 51.207031 -29.164062 53.21875 -32.8125 C 55.226562 -36.457031 56.941406 -40.101562 58.359375 -43.75 C 59.785156 -47.394531 60.875 -50.875 61.625 -54.1875 C 62.375 -57.507812 62.75 -60.457031 62.75 -63.03125 C 62.75 -65.082031 62.289062 -66.804688 61.375 -68.203125 C 60.46875 -69.609375 58.960938 -70.3125 56.859375 -70.3125 C 54.335938 -70.3125 51.742188 -69.4375 49.078125 -67.6875 C 46.410156 -65.9375 43.722656 -63.492188 41.015625 -60.359375 C 38.304688 -57.234375 35.640625 -53.613281 33.015625 -49.5 C 30.398438 -45.382812 27.875 -40.929688 25.4375 -36.140625 C 23.007812 -31.347656 20.742188 -26.40625 18.640625 -21.3125 C 16.546875 -16.21875 14.65625 -11.171875 12.96875 -6.171875 C 13.664062 -5.984375 14.421875 -5.816406 15.234375 -5.671875 C 16.054688 -5.535156 16.914062 -5.46875 17.8125 -5.46875 Z M 8.203125 2.3125 C 8.898438 -0.0703125 9.71875 -2.597656 10.65625 -5.265625 C 10.46875 -5.347656 10.269531 -5.445312 10.0625 -5.5625 C 9.851562 -5.6875 9.65625 -5.796875 9.46875 -5.890625 C 9 -3.222656 8.578125 -0.488281 8.203125 2.3125 Z M 8.203125 2.3125 "/></g></g></g><g fill="#f4f1ed" fill-opacity="1"><g transform="translate(87.565269, 198.722946)"><g><path d="M 4.484375 4 C 4.203125 4.695312 3.78125 4.925781 3.21875 4.6875 C 2.664062 4.457031 2.109375 3.976562 1.546875 3.25 C 0.984375 2.53125 0.535156 1.738281 0.203125 0.875 C -0.117188 0.0078125 -0.1875 -0.703125 0 -1.265625 C 0.132812 -1.640625 0.4375 -2.570312 0.90625 -4.0625 C 1.375 -5.5625 1.945312 -7.375 2.625 -9.5 C 3.300781 -11.625 4 -13.898438 4.71875 -16.328125 C 5.445312 -18.765625 6.128906 -21.128906 6.765625 -23.421875 C 7.398438 -25.710938 7.914062 -27.753906 8.3125 -29.546875 C 8.707031 -31.347656 8.90625 -32.671875 8.90625 -33.515625 C 8.90625 -33.929688 9.148438 -34.054688 9.640625 -33.890625 C 10.128906 -33.734375 10.6875 -33.382812 11.3125 -32.84375 C 11.945312 -32.3125 12.472656 -31.726562 12.890625 -31.09375 C 13.316406 -30.457031 13.460938 -29.882812 13.328125 -29.375 C 13.234375 -29.050781 12.925781 -28.148438 12.40625 -26.671875 C 11.894531 -25.203125 11.273438 -23.414062 10.546875 -21.3125 C 9.828125 -19.207031 9.09375 -17.054688 8.34375 -14.859375 C 7.59375 -12.660156 6.925781 -10.671875 6.34375 -8.890625 C 5.757812 -7.117188 5.375 -5.773438 5.1875 -4.859375 C 5 -3.953125 5.09375 -3.78125 5.46875 -4.34375 C 5.9375 -5 6.679688 -6.070312 7.703125 -7.5625 C 8.734375 -9.0625 9.914062 -10.722656 11.25 -12.546875 C 12.582031 -14.367188 13.960938 -16.117188 15.390625 -17.796875 C 16.816406 -19.484375 18.179688 -20.875 19.484375 -21.96875 C 20.796875 -23.070312 21.894531 -23.601562 22.78125 -23.5625 C 23.769531 -23.5625 24.539062 -23.066406 25.09375 -22.078125 C 25.65625 -21.097656 26.109375 -19.988281 26.453125 -18.75 C 26.804688 -17.507812 27.148438 -16.445312 27.484375 -15.5625 C 27.859375 -14.675781 28.253906 -14.207031 28.671875 -14.15625 C 29.367188 -14.0625 30.265625 -14.25 31.359375 -14.71875 C 32.460938 -15.1875 33.644531 -15.804688 34.90625 -16.578125 C 36.175781 -17.347656 37.394531 -18.15625 38.5625 -19 C 39.726562 -19.84375 40.742188 -20.613281 41.609375 -21.3125 C 42.472656 -22.007812 43.046875 -22.476562 43.328125 -22.71875 C 44.078125 -23.375 44.578125 -23.453125 44.828125 -22.953125 C 45.085938 -22.460938 44.890625 -21.941406 44.234375 -21.390625 C 43.953125 -21.148438 43.414062 -20.65625 42.625 -19.90625 C 41.832031 -19.164062 40.894531 -18.316406 39.8125 -17.359375 C 38.738281 -16.398438 37.628906 -15.453125 36.484375 -14.515625 C 35.347656 -13.578125 34.285156 -12.800781 33.296875 -12.1875 C 32.316406 -11.582031 31.523438 -11.257812 30.921875 -11.21875 C 29.234375 -11.164062 27.875 -11.6875 26.84375 -12.78125 C 25.820312 -13.882812 25.050781 -15.066406 24.53125 -16.328125 C 24.113281 -17.410156 23.773438 -18.347656 23.515625 -19.140625 C 23.265625 -19.929688 22.878906 -20.304688 22.359375 -20.265625 C 21.472656 -20.171875 20.457031 -19.582031 19.3125 -18.5 C 18.164062 -17.425781 16.945312 -16.046875 15.65625 -14.359375 C 14.375 -12.679688 13.113281 -10.882812 11.875 -8.96875 C 10.644531 -7.050781 9.503906 -5.179688 8.453125 -3.359375 C 7.398438 -1.535156 6.519531 0.0234375 5.8125 1.328125 C 5.113281 2.640625 4.671875 3.53125 4.484375 4 Z M 4.484375 4 "/></g></g></g><g fill="#f4f1ed" fill-opacity="1"><g transform="translate(122.33561, 198.722946)"><g><path d="M 38.625 -21.9375 C 38.769531 -22.175781 39.03125 -22.257812 39.40625 -22.1875 C 39.78125 -22.113281 40.09375 -21.945312 40.34375 -21.6875 C 40.601562 -21.4375 40.617188 -21.171875 40.390625 -20.890625 C 39.546875 -19.722656 38.375 -18.367188 36.875 -16.828125 C 35.382812 -15.285156 33.617188 -13.742188 31.578125 -12.203125 C 29.546875 -10.660156 27.300781 -9.335938 24.84375 -8.234375 C 22.394531 -7.140625 19.789062 -6.453125 17.03125 -6.171875 C 15.914062 -4.109375 14.722656 -2.222656 13.453125 -0.515625 C 12.191406 1.179688 10.953125 2.519531 9.734375 3.5 C 8.523438 4.488281 7.40625 4.984375 6.375 4.984375 C 5.351562 4.984375 4.394531 4.640625 3.5 3.953125 C 2.613281 3.273438 1.898438 2.445312 1.359375 1.46875 C 0.828125 0.488281 0.5625 -0.46875 0.5625 -1.40625 C 0.601562 -2.757812 0.765625 -4.148438 1.046875 -5.578125 C 1.328125 -7.003906 1.703125 -8.414062 2.171875 -9.8125 C 0.910156 -10.84375 0 -12 -0.5625 -13.28125 C -1.125 -14.570312 -1.40625 -15.867188 -1.40625 -17.171875 C -1.40625 -19.554688 -0.878906 -21.71875 0.171875 -23.65625 C 1.222656 -25.601562 2.585938 -27.273438 4.265625 -28.671875 C 5.953125 -30.078125 7.773438 -31.148438 9.734375 -31.890625 C 11.703125 -32.640625 13.625 -33.015625 15.5 -33.015625 C 17.550781 -33.015625 19.320312 -32.347656 20.8125 -31.015625 C 22.3125 -29.691406 23.0625 -27.953125 23.0625 -25.796875 C 23.0625 -23.273438 22.570312 -20.398438 21.59375 -17.171875 C 20.613281 -13.953125 19.375 -10.820312 17.875 -7.78125 C 20.164062 -8.101562 22.582031 -8.828125 25.125 -9.953125 C 27.675781 -11.078125 30.128906 -12.628906 32.484375 -14.609375 C 34.847656 -16.597656 36.894531 -19.039062 38.625 -21.9375 Z M 2.453125 -15.5625 C 2.453125 -14.4375 2.6875 -13.410156 3.15625 -12.484375 C 4.039062 -14.535156 4.984375 -16.398438 5.984375 -18.078125 C 6.992188 -19.765625 7.96875 -21.109375 8.90625 -22.109375 C 9.84375 -23.117188 10.566406 -23.625 11.078125 -23.625 C 12.335938 -23.625 13.25 -23.226562 13.8125 -22.4375 C 14.375 -21.644531 14.488281 -20.96875 14.15625 -20.40625 C 13.269531 -18.769531 12.320312 -16.898438 11.3125 -14.796875 C 10.3125 -12.691406 9.390625 -10.609375 8.546875 -8.546875 C 9.484375 -8.265625 10.523438 -8.039062 11.671875 -7.875 C 12.816406 -7.71875 14.09375 -7.640625 15.5 -7.640625 L 15.921875 -7.640625 C 17.410156 -10.535156 18.65625 -13.664062 19.65625 -17.03125 C 20.664062 -20.394531 21.171875 -23.625 21.171875 -26.71875 C 21.171875 -28.164062 20.785156 -29.304688 20.015625 -30.140625 C 19.242188 -30.984375 18.25 -31.40625 17.03125 -31.40625 C 15.394531 -31.40625 13.84375 -30.984375 12.375 -30.140625 C 10.90625 -29.304688 9.5625 -28.234375 8.34375 -26.921875 C 7.125 -25.609375 6.070312 -24.21875 5.1875 -22.75 C 4.300781 -21.28125 3.625 -19.898438 3.15625 -18.609375 C 2.6875 -17.328125 2.453125 -16.3125 2.453125 -15.5625 Z M 6.375 3.21875 C 7.5 3.21875 8.867188 2.34375 10.484375 0.59375 C 12.097656 -1.15625 13.648438 -3.382812 15.140625 -6.09375 L 15 -6.09375 C 12.238281 -6.09375 9.878906 -6.375 7.921875 -6.9375 C 7.222656 -5.113281 6.640625 -3.429688 6.171875 -1.890625 C 5.703125 -0.347656 5.46875 0.882812 5.46875 1.8125 C 5.46875 2.75 5.769531 3.21875 6.375 3.21875 Z M 6.375 3.21875 "/></g></g></g><g fill="#f4f1ed" fill-opacity="1"><g transform="translate(153.110167, 198.722946)"><g><path d="M 48.515625 -20.046875 C 48.742188 -20.328125 49.175781 -20.429688 49.8125 -20.359375 C 50.445312 -20.296875 50.960938 -20.097656 51.359375 -19.765625 C 51.753906 -19.441406 51.695312 -19 51.1875 -18.4375 C 50.8125 -18.019531 50.097656 -17.34375 49.046875 -16.40625 C 47.992188 -15.46875 46.753906 -14.484375 45.328125 -13.453125 C 43.898438 -12.429688 42.4375 -11.554688 40.9375 -10.828125 C 39.445312 -10.109375 38.070312 -9.75 36.8125 -9.75 C 35.40625 -9.75 34.082031 -10.25 32.84375 -11.25 C 31.601562 -12.257812 30.539062 -13.441406 29.65625 -14.796875 C 28.34375 -12.597656 26.84375 -10.1875 25.15625 -7.5625 C 23.476562 -4.945312 21.726562 -2.359375 19.90625 0.203125 C 18.082031 2.773438 16.304688 5.113281 14.578125 7.21875 C 12.847656 9.320312 11.28125 11.015625 9.875 12.296875 C 8.476562 13.585938 7.335938 14.234375 6.453125 14.234375 C 5.609375 14.234375 4.671875 13.941406 3.640625 13.359375 C 2.617188 12.773438 1.734375 11.769531 0.984375 10.34375 C 0.234375 8.914062 -0.140625 6.914062 -0.140625 4.34375 C -0.140625 2.800781 0.113281 0.875 0.625 -1.4375 C 1.144531 -3.75 1.773438 -6.164062 2.515625 -8.6875 C 3.265625 -11.21875 4 -13.59375 4.71875 -15.8125 C 5.445312 -18.03125 6.066406 -19.851562 6.578125 -21.28125 C 7.097656 -22.707031 7.359375 -23.46875 7.359375 -23.5625 C 7.359375 -23.789062 7.378906 -24.101562 7.421875 -24.5 C 7.472656 -24.894531 7.382812 -25.539062 7.15625 -26.4375 C 7.0625 -26.851562 7.304688 -27.035156 7.890625 -26.984375 C 8.472656 -26.941406 9.179688 -26.707031 10.015625 -26.28125 C 10.859375 -25.863281 11.609375 -25.289062 12.265625 -24.5625 C 12.921875 -23.84375 13.25 -23.015625 13.25 -22.078125 C 13.25 -21.335938 12.921875 -20.191406 12.265625 -18.640625 C 11.609375 -17.097656 10.8125 -15.300781 9.875 -13.25 C 8.945312 -11.195312 8.003906 -9.007812 7.046875 -6.6875 C 6.085938 -4.375 5.28125 -2.050781 4.625 0.28125 C 3.96875 2.613281 3.640625 4.832031 3.640625 6.9375 C 3.640625 9.601562 4.410156 10.867188 5.953125 10.734375 C 7.128906 10.585938 8.441406 9.914062 9.890625 8.71875 C 11.335938 7.53125 12.851562 5.96875 14.4375 4.03125 C 16.03125 2.09375 17.644531 -0.0664062 19.28125 -2.453125 C 20.914062 -4.835938 22.503906 -7.300781 24.046875 -9.84375 C 25.585938 -12.394531 27.035156 -14.863281 28.390625 -17.25 C 28.109375 -17.945312 27.882812 -18.625 27.71875 -19.28125 C 27.5625 -19.9375 27.484375 -20.546875 27.484375 -21.109375 C 27.484375 -22.316406 27.71875 -23.410156 28.1875 -24.390625 C 28.65625 -25.378906 29.257812 -25.875 30 -25.875 C 30.800781 -25.875 31.65625 -25.640625 32.5625 -25.171875 C 33.476562 -24.703125 33.9375 -24.023438 33.9375 -23.140625 C 33.9375 -22.804688 33.675781 -22.125 33.15625 -21.09375 C 32.644531 -20.070312 31.945312 -18.765625 31.0625 -17.171875 C 31.4375 -15.867188 32.03125 -14.703125 32.84375 -13.671875 C 33.664062 -12.640625 34.820312 -12.125 36.3125 -12.125 C 37.8125 -12.125 39.25 -12.484375 40.625 -13.203125 C 42.007812 -13.929688 43.257812 -14.785156 44.375 -15.765625 C 45.5 -16.753906 46.421875 -17.664062 47.140625 -18.5 C 47.867188 -19.34375 48.328125 -19.859375 48.515625 -20.046875 Z M 48.515625 -20.046875 "/></g></g></g><g fill="#f4f1ed" fill-opacity="1"><g transform="translate(193.698936, 198.722946)"><g><path d="M 39.328125 -21.109375 C 39.753906 -21.617188 40.101562 -21.769531 40.375 -21.5625 C 40.65625 -21.351562 40.816406 -21 40.859375 -20.5 C 40.910156 -20.007812 40.726562 -19.554688 40.3125 -19.140625 C 39.613281 -18.390625 38.5625 -17.273438 37.15625 -15.796875 C 35.75 -14.328125 34.125 -12.660156 32.28125 -10.796875 C 30.4375 -8.929688 28.5 -7.039062 26.46875 -5.125 C 24.4375 -3.207031 22.414062 -1.441406 20.40625 0.171875 C 18.394531 1.785156 16.535156 3.09375 14.828125 4.09375 C 13.117188 5.101562 11.660156 5.609375 10.453125 5.609375 C 7.785156 5.609375 5.570312 4.800781 3.8125 3.1875 C 2.0625 1.570312 1.1875 -0.867188 1.1875 -4.140625 C 1.1875 -6.242188 1.523438 -8.414062 2.203125 -10.65625 C 2.878906 -12.894531 3.789062 -15.054688 4.9375 -17.140625 C 6.082031 -19.222656 7.378906 -21.101562 8.828125 -22.78125 C 10.273438 -24.46875 11.796875 -25.800781 13.390625 -26.78125 C 14.984375 -27.757812 16.550781 -28.25 18.09375 -28.25 C 19.769531 -28.25 21.050781 -27.863281 21.9375 -27.09375 C 22.832031 -26.320312 23.28125 -25.304688 23.28125 -24.046875 C 23.28125 -22.972656 22.90625 -21.78125 22.15625 -20.46875 C 21.40625 -19.164062 20.457031 -18.054688 19.3125 -17.140625 C 18.164062 -16.234375 16.941406 -15.78125 15.640625 -15.78125 C 14.460938 -15.78125 13.546875 -16.070312 12.890625 -16.65625 C 12.242188 -17.238281 11.640625 -17.878906 11.078125 -18.578125 C 9.484375 -16.191406 8.113281 -13.46875 6.96875 -10.40625 C 5.832031 -7.34375 5.265625 -4.296875 5.265625 -1.265625 C 5.265625 0.328125 5.632812 1.613281 6.375 2.59375 C 7.125 3.570312 8.222656 4.0625 9.671875 4.0625 C 10.929688 4.019531 12.492188 3.4375 14.359375 2.3125 C 16.234375 1.1875 18.234375 -0.257812 20.359375 -2.03125 C 22.492188 -3.8125 24.609375 -5.726562 26.703125 -7.78125 C 28.804688 -9.832031 30.757812 -11.804688 32.5625 -13.703125 C 34.363281 -15.597656 35.867188 -17.222656 37.078125 -18.578125 C 38.296875 -19.929688 39.046875 -20.773438 39.328125 -21.109375 Z M 20.1875 -26.21875 C 19.019531 -26.21875 17.664062 -25.585938 16.125 -24.328125 C 14.582031 -23.066406 13.0625 -21.40625 11.5625 -19.34375 C 11.9375 -18.882812 12.367188 -18.515625 12.859375 -18.234375 C 13.347656 -17.953125 13.804688 -17.8125 14.234375 -17.8125 C 14.835938 -17.8125 15.675781 -18.148438 16.75 -18.828125 C 17.832031 -19.503906 18.816406 -20.414062 19.703125 -21.5625 C 20.585938 -22.707031 21.03125 -23.957031 21.03125 -25.3125 C 21.03125 -25.914062 20.75 -26.21875 20.1875 -26.21875 Z M 20.1875 -26.21875 "/></g></g></g><g fill="#f4f1ed" fill-opacity="1"><g transform="translate(225.595117, 198.722946)"><g><path d="M 4.484375 4 C 4.203125 4.695312 3.78125 4.925781 3.21875 4.6875 C 2.664062 4.457031 2.109375 3.976562 1.546875 3.25 C 0.984375 2.53125 0.535156 1.738281 0.203125 0.875 C -0.117188 0.0078125 -0.1875 -0.703125 0 -1.265625 C 0.132812 -1.640625 0.4375 -2.570312 0.90625 -4.0625 C 1.375 -5.5625 1.945312 -7.375 2.625 -9.5 C 3.300781 -11.625 4 -13.898438 4.71875 -16.328125 C 5.445312 -18.765625 6.128906 -21.128906 6.765625 -23.421875 C 7.398438 -25.710938 7.914062 -27.753906 8.3125 -29.546875 C 8.707031 -31.347656 8.90625 -32.671875 8.90625 -33.515625 C 8.90625 -33.929688 9.148438 -34.054688 9.640625 -33.890625 C 10.128906 -33.734375 10.6875 -33.382812 11.3125 -32.84375 C 11.945312 -32.3125 12.472656 -31.726562 12.890625 -31.09375 C 13.316406 -30.457031 13.460938 -29.882812 13.328125 -29.375 C 13.234375 -29.050781 12.925781 -28.148438 12.40625 -26.671875 C 11.894531 -25.203125 11.273438 -23.414062 10.546875 -21.3125 C 9.828125 -19.207031 9.09375 -17.054688 8.34375 -14.859375 C 7.59375 -12.660156 6.925781 -10.671875 6.34375 -8.890625 C 5.757812 -7.117188 5.375 -5.773438 5.1875 -4.859375 C 5 -3.953125 5.09375 -3.78125 5.46875 -4.34375 C 5.9375 -5 6.679688 -6.070312 7.703125 -7.5625 C 8.734375 -9.0625 9.914062 -10.722656 11.25 -12.546875 C 12.582031 -14.367188 13.960938 -16.117188 15.390625 -17.796875 C 16.816406 -19.484375 18.179688 -20.875 19.484375 -21.96875 C 20.796875 -23.070312 21.894531 -23.601562 22.78125 -23.5625 C 23.769531 -23.5625 24.539062 -23.066406 25.09375 -22.078125 C 25.65625 -21.097656 26.109375 -19.988281 26.453125 -18.75 C 26.804688 -17.507812 27.148438 -16.445312 27.484375 -15.5625 C 27.859375 -14.675781 28.253906 -14.207031 28.671875 -14.15625 C 29.367188 -14.0625 30.265625 -14.25 31.359375 -14.71875 C 32.460938 -15.1875 33.644531 -15.804688 34.90625 -16.578125 C 36.175781 -17.347656 37.394531 -18.15625 38.5625 -19 C 39.726562 -19.84375 40.742188 -20.613281 41.609375 -21.3125 C 42.472656 -22.007812 43.046875 -22.476562 43.328125 -22.71875 C 44.078125 -23.375 44.578125 -23.453125 44.828125 -22.953125 C 45.085938 -22.460938 44.890625 -21.941406 44.234375 -21.390625 C 43.953125 -21.148438 43.414062 -20.65625 42.625 -19.90625 C 41.832031 -19.164062 40.894531 -18.316406 39.8125 -17.359375 C 38.738281 -16.398438 37.628906 -15.453125 36.484375 -14.515625 C 35.347656 -13.578125 34.285156 -12.800781 33.296875 -12.1875 C 32.316406 -11.582031 31.523438 -11.257812 30.921875 -11.21875 C 29.234375 -11.164062 27.875 -11.6875 26.84375 -12.78125 C 25.820312 -13.882812 25.050781 -15.066406 24.53125 -16.328125 C 24.113281 -17.410156 23.773438 -18.347656 23.515625 -19.140625 C 23.265625 -19.929688 22.878906 -20.304688 22.359375 -20.265625 C 21.472656 -20.171875 20.457031 -19.582031 19.3125 -18.5 C 18.164062 -17.425781 16.945312 -16.046875 15.65625 -14.359375 C 14.375 -12.679688 13.113281 -10.882812 11.875 -8.96875 C 10.644531 -7.050781 9.503906 -5.179688 8.453125 -3.359375 C 7.398438 -1.535156 6.519531 0.0234375 5.8125 1.328125 C 5.113281 2.640625 4.671875 3.53125 4.484375 4 Z M 4.484375 4 "/></g></g></g><g fill="#f4f1ed" fill-opacity="1"><g transform="translate(260.365458, 198.722946)"><g><path d="M 52.71875 -20.265625 C 52.957031 -20.359375 53.238281 -20.265625 53.5625 -19.984375 C 53.882812 -19.703125 54.09375 -19.382812 54.1875 -19.03125 C 54.28125 -18.6875 54.070312 -18.421875 53.5625 -18.234375 C 51.226562 -17.429688 48.332031 -16.0625 44.875 -14.125 C 41.414062 -12.1875 37.835938 -9.976562 34.140625 -7.5 C 32.691406 -3.945312 31.007812 -0.523438 29.09375 2.765625 C 27.175781 6.066406 25.222656 9.023438 23.234375 11.640625 C 21.253906 14.253906 19.410156 16.332031 17.703125 17.875 C 15.992188 19.414062 14.648438 20.1875 13.671875 20.1875 C 13.253906 20.1875 12.566406 20.046875 11.609375 19.765625 C 10.648438 19.484375 9.769531 19.015625 8.96875 18.359375 C 8.175781 17.710938 7.78125 16.851562 7.78125 15.78125 C 7.78125 14.375 8.363281 12.769531 9.53125 10.96875 C 10.695312 9.164062 12.296875 7.238281 14.328125 5.1875 C 16.367188 3.132812 18.695312 1.046875 21.3125 -1.078125 C 23.925781 -3.210938 26.660156 -5.285156 29.515625 -7.296875 C 31.015625 -10.796875 32.242188 -14.15625 33.203125 -17.375 C 34.160156 -20.601562 34.640625 -23.296875 34.640625 -25.453125 C 34.640625 -25.828125 34.53125 -26.117188 34.3125 -26.328125 C 34.101562 -26.535156 33.671875 -26.640625 33.015625 -26.640625 C 31.660156 -26.640625 30.203125 -26.007812 28.640625 -24.75 C 27.078125 -23.488281 25.476562 -21.804688 23.84375 -19.703125 C 22.207031 -17.597656 20.582031 -15.234375 18.96875 -12.609375 C 17.351562 -9.992188 15.804688 -7.296875 14.328125 -4.515625 C 12.859375 -1.734375 11.519531 0.9375 10.3125 3.5 C 8.8125 6.675781 7.429688 9.816406 6.171875 12.921875 C 4.910156 16.035156 3.800781 18.863281 2.84375 21.40625 C 1.882812 23.957031 1.066406 25.992188 0.390625 27.515625 C -0.285156 29.035156 -0.789062 29.796875 -1.125 29.796875 C -1.539062 29.796875 -2.078125 29.722656 -2.734375 29.578125 C -3.390625 29.441406 -3.960938 29.160156 -4.453125 28.734375 C -4.941406 28.316406 -5.164062 27.664062 -5.125 26.78125 C -4.9375 23.976562 -4.429688 20.632812 -3.609375 16.75 C -2.796875 12.875 -1.769531 8.703125 -0.53125 4.234375 C 0.707031 -0.222656 2.050781 -4.765625 3.5 -9.390625 C 4.945312 -14.015625 6.394531 -18.476562 7.84375 -22.78125 C 9.300781 -27.082031 10.660156 -31.007812 11.921875 -34.5625 C 13.179688 -38.113281 14.226562 -41.046875 15.0625 -43.359375 C 15.90625 -45.671875 16.421875 -47.132812 16.609375 -47.75 C 16.890625 -48.582031 17.34375 -49.804688 17.96875 -51.421875 C 18.601562 -53.035156 19.316406 -54.785156 20.109375 -56.671875 C 20.910156 -58.566406 21.707031 -60.378906 22.5 -62.109375 C 23.300781 -63.847656 24.039062 -65.265625 24.71875 -66.359375 C 25.394531 -67.453125 25.894531 -68.023438 26.21875 -68.078125 C 27.101562 -68.171875 28.015625 -67.925781 28.953125 -67.34375 C 29.890625 -66.757812 30.660156 -66.09375 31.265625 -65.34375 C 31.878906 -64.59375 32.113281 -63.960938 31.96875 -63.453125 C 31.925781 -63.265625 31.644531 -63.21875 31.125 -63.3125 C 30.613281 -63.40625 30.101562 -63.265625 29.59375 -62.890625 C 28.5625 -62.140625 27.597656 -61.085938 26.703125 -59.734375 C 25.816406 -58.378906 24.863281 -56.578125 23.84375 -54.328125 C 23.601562 -53.816406 22.992188 -52.367188 22.015625 -49.984375 C 21.035156 -47.597656 19.816406 -44.488281 18.359375 -40.65625 C 16.910156 -36.832031 15.3125 -32.441406 13.5625 -27.484375 C 11.8125 -22.523438 10.007812 -17.207031 8.15625 -11.53125 C 6.3125 -5.851562 4.535156 0.046875 2.828125 6.171875 C 1.128906 12.296875 -0.421875 18.414062 -1.828125 24.53125 C -1.585938 24.113281 -1.101562 23.050781 -0.375 21.34375 C 0.34375 19.644531 1.257812 17.484375 2.375 14.859375 C 3.5 12.242188 4.785156 9.359375 6.234375 6.203125 C 7.679688 3.046875 9.25 -0.164062 10.9375 -3.4375 C 12.625 -6.707031 14.363281 -9.859375 16.15625 -12.890625 C 17.957031 -15.929688 19.78125 -18.65625 21.625 -21.0625 C 23.46875 -23.46875 25.289062 -25.382812 27.09375 -26.8125 C 28.894531 -28.238281 30.613281 -28.953125 32.25 -28.953125 C 33.695312 -28.953125 34.976562 -28.445312 36.09375 -27.4375 C 37.21875 -26.4375 37.78125 -25.117188 37.78125 -23.484375 C 37.78125 -21.617188 37.582031 -19.644531 37.1875 -17.5625 C 36.789062 -15.476562 36.242188 -13.382812 35.546875 -11.28125 C 38.722656 -13.34375 41.804688 -15.15625 44.796875 -16.71875 C 47.785156 -18.28125 50.425781 -19.460938 52.71875 -20.265625 Z M 12.484375 17.390625 C 13.742188 17.148438 15.222656 16.070312 16.921875 14.15625 C 18.628906 12.238281 20.40625 9.785156 22.25 6.796875 C 24.101562 3.804688 25.847656 0.628906 27.484375 -2.734375 C 24.441406 -0.441406 21.644531 1.859375 19.09375 4.171875 C 16.550781 6.484375 14.519531 8.65625 13 10.6875 C 11.488281 12.71875 10.734375 14.460938 10.734375 15.921875 C 10.734375 16.285156 10.867188 16.644531 11.140625 17 C 11.421875 17.351562 11.867188 17.484375 12.484375 17.390625 Z M 12.484375 17.390625 "/></g></g></g><g fill="#f4f1ed" fill-opacity="1"><g transform="translate(306.562347, 198.722946)"><g><path d="M 40.109375 -17.171875 C 40.335938 -17.265625 40.566406 -17.085938 40.796875 -16.640625 C 41.035156 -16.203125 41.035156 -15.9375 40.796875 -15.84375 C 38.835938 -15.1875 36.476562 -14.125 33.71875 -12.65625 C 30.96875 -11.1875 28 -9.421875 24.8125 -7.359375 C 21.632812 -5.304688 18.410156 -3.085938 15.140625 -0.703125 C 17.054688 0.328125 18.375 1.484375 19.09375 2.765625 C 19.820312 4.054688 20.1875 5.613281 20.1875 7.4375 C 20.1875 8.882812 19.679688 10.550781 18.671875 12.4375 C 17.671875 14.332031 16.328125 16.296875 14.640625 18.328125 C 12.960938 20.367188 11.082031 22.332031 9 24.21875 C 6.925781 26.113281 4.78125 27.820312 2.5625 29.34375 C 0.34375 30.863281 -1.804688 32.078125 -3.890625 32.984375 C -5.972656 33.898438 -7.832031 34.359375 -9.46875 34.359375 C -11.050781 34.359375 -12.320312 34.003906 -13.28125 33.296875 C -14.238281 32.597656 -14.925781 31.742188 -15.34375 30.734375 C -15.769531 29.734375 -15.984375 28.789062 -15.984375 27.90625 C -15.984375 26.363281 -15.289062 24.550781 -13.90625 22.46875 C -12.53125 20.382812 -10.640625 18.140625 -8.234375 15.734375 C -5.828125 13.328125 -3.101562 10.835938 -0.0625 8.265625 C 2.96875 5.703125 6.164062 3.203125 9.53125 0.765625 C 9.207031 0.671875 8.847656 0.578125 8.453125 0.484375 C 8.054688 0.390625 7.671875 0.296875 7.296875 0.203125 C 6.117188 -0.160156 4.875 -0.726562 3.5625 -1.5 C 2.257812 -2.28125 1.148438 -3.21875 0.234375 -4.3125 C -0.671875 -5.40625 -1.125 -6.585938 -1.125 -7.859375 C -1.125 -9.679688 -0.71875 -11.421875 0.09375 -13.078125 C 0.914062 -14.734375 1.957031 -16.285156 3.21875 -17.734375 C 4.488281 -19.179688 5.765625 -20.476562 7.046875 -21.625 C 8.328125 -22.769531 9.4375 -23.691406 10.375 -24.390625 C 11.21875 -24.953125 11.660156 -25.5625 11.703125 -26.21875 C 11.753906 -26.78125 12.296875 -27.296875 13.328125 -27.765625 C 14.910156 -28.460938 16.53125 -29.195312 18.1875 -29.96875 C 19.851562 -30.738281 21.082031 -31.125 21.875 -31.125 C 22.53125 -31.125 23.078125 -30.832031 23.515625 -30.25 C 23.960938 -29.664062 24.207031 -29.054688 24.25 -28.421875 C 24.300781 -27.796875 24.023438 -27.363281 23.421875 -27.125 C 22.109375 -26.664062 20.53125 -25.863281 18.6875 -24.71875 C 16.84375 -23.570312 14.9375 -22.226562 12.96875 -20.6875 C 11.007812 -19.144531 9.175781 -17.53125 7.46875 -15.84375 C 5.757812 -14.164062 4.367188 -12.539062 3.296875 -10.96875 C 2.222656 -9.40625 1.6875 -8.015625 1.6875 -6.796875 C 1.6875 -6.003906 2.128906 -5.363281 3.015625 -4.875 C 3.898438 -4.382812 4.992188 -3.984375 6.296875 -3.671875 C 7.609375 -3.367188 8.921875 -3.007812 10.234375 -2.59375 C 10.742188 -2.457031 11.222656 -2.304688 11.671875 -2.140625 C 12.117188 -1.972656 12.550781 -1.796875 12.96875 -1.609375 C 16.476562 -4.085938 19.925781 -6.378906 23.3125 -8.484375 C 26.695312 -10.585938 29.835938 -12.394531 32.734375 -13.90625 C 35.640625 -15.425781 38.097656 -16.515625 40.109375 -17.171875 Z M 16.75 3.859375 C 16.75 3.109375 16.335938 2.566406 15.515625 2.234375 C 14.703125 1.910156 13.644531 1.632812 12.34375 1.40625 C 8.976562 3.976562 5.726562 6.609375 2.59375 9.296875 C -0.539062 11.984375 -3.332031 14.597656 -5.78125 17.140625 C -8.238281 19.691406 -10.175781 22.03125 -11.59375 24.15625 C -13.019531 26.28125 -13.734375 28.066406 -13.734375 29.515625 C -13.734375 30.171875 -13.476562 30.789062 -12.96875 31.375 C -12.457031 31.957031 -11.664062 32.179688 -10.59375 32.046875 C -8.769531 31.804688 -6.835938 31.132812 -4.796875 30.03125 C -2.765625 28.9375 -0.722656 27.535156 1.328125 25.828125 C 3.390625 24.128906 5.34375 22.257812 7.1875 20.21875 C 9.03125 18.1875 10.664062 16.15625 12.09375 14.125 C 13.519531 12.09375 14.648438 10.175781 15.484375 8.375 C 16.328125 6.570312 16.75 5.066406 16.75 3.859375 Z M 16.75 3.859375 "/></g></g></g><g fill="#f4f1ed" fill-opacity="1"><g transform="translate(58.148554, 233.364037)"><g><path d="M -0.21875 -2.53125 L -0.21875 -3.078125 L 6.8125 -3.078125 L 6.8125 -2.53125 Z M -0.21875 -2.53125 "/></g></g></g><g fill="#f4f1ed" fill-opacity="1"><g transform="translate(66.393884, 233.364037)"><g/></g></g><g fill="#f4f1ed" fill-opacity="1"><g transform="translate(70.914655, 233.364037)"><g><path d="M 2.0625 -6.96875 L 2.0625 -3.953125 L 6.03125 -3.953125 L 6.03125 -3.25 L 2.0625 -3.25 L 2.0625 0 L 1.25 0 L 1.25 -7.671875 L 6.515625 -7.671875 L 6.515625 -6.96875 Z M 2.0625 -6.96875 "/></g></g></g><g fill="#f4f1ed" fill-opacity="1"><g transform="translate(79.504852, 233.364037)"><g><path d="M 1.25 -7.671875 L 2.0625 -7.671875 L 2.0625 0 L 1.25 0 Z M 1.25 -7.671875 "/></g></g></g><g fill="#f4f1ed" fill-opacity="1"><g transform="translate(84.464378, 233.364037)"><g><path d="M 7.671875 -7.671875 L 7.671875 0 L 7 0 L 2.0625 -6.234375 L 2.0625 0 L 1.25 0 L 1.25 -7.671875 L 1.921875 -7.671875 L 6.859375 -1.453125 L 6.859375 -7.671875 Z M 7.671875 -7.671875 "/></g></g></g><g fill="#f4f1ed" fill-opacity="1"><g transform="translate(95.028956, 233.364037)"><g><path d="M 6.0625 -2.046875 L 1.78125 -2.046875 L 0.859375 0 L 0.015625 0 L 3.53125 -7.671875 L 4.328125 -7.671875 L 7.84375 0 L 6.984375 0 Z M 5.765625 -2.703125 L 3.921875 -6.828125 L 2.078125 -2.703125 Z M 5.765625 -2.703125 "/></g></g></g><g fill="#f4f1ed" fill-opacity="1"><g transform="translate(104.54053, 233.364037)"><g><path d="M 7.671875 -7.671875 L 7.671875 0 L 7 0 L 2.0625 -6.234375 L 2.0625 0 L 1.25 0 L 1.25 -7.671875 L 1.921875 -7.671875 L 6.859375 -1.453125 L 6.859375 -7.671875 Z M 7.671875 -7.671875 "/></g></g></g><g fill="#f4f1ed" fill-opacity="1"><g transform="translate(115.105108, 233.364037)"><g><path d="M 4.578125 0.0625 C 3.816406 0.0625 3.128906 -0.101562 2.515625 -0.4375 C 1.910156 -0.769531 1.4375 -1.234375 1.09375 -1.828125 C 0.75 -2.429688 0.578125 -3.101562 0.578125 -3.84375 C 0.578125 -4.582031 0.75 -5.25 1.09375 -5.84375 C 1.4375 -6.4375 1.914062 -6.898438 2.53125 -7.234375 C 3.144531 -7.578125 3.832031 -7.75 4.59375 -7.75 C 5.164062 -7.75 5.691406 -7.648438 6.171875 -7.453125 C 6.660156 -7.265625 7.070312 -6.988281 7.40625 -6.625 L 6.890625 -6.109375 C 6.285156 -6.710938 5.53125 -7.015625 4.625 -7.015625 C 4.007812 -7.015625 3.453125 -6.875 2.953125 -6.59375 C 2.460938 -6.320312 2.078125 -5.941406 1.796875 -5.453125 C 1.515625 -4.972656 1.375 -4.4375 1.375 -3.84375 C 1.375 -3.238281 1.515625 -2.691406 1.796875 -2.203125 C 2.078125 -1.722656 2.460938 -1.34375 2.953125 -1.0625 C 3.453125 -0.789062 4.007812 -0.65625 4.625 -0.65625 C 5.539062 -0.65625 6.296875 -0.960938 6.890625 -1.578125 L 7.40625 -1.0625 C 7.070312 -0.695312 6.660156 -0.414062 6.171875 -0.21875 C 5.679688 -0.03125 5.148438 0.0625 4.578125 0.0625 Z M 4.578125 0.0625 "/></g></g></g><g fill="#f4f1ed" fill-opacity="1"><g transform="translate(124.638619, 233.364037)"><g><path d="M 1.25 -7.671875 L 2.0625 -7.671875 L 2.0625 0 L 1.25 0 Z M 1.25 -7.671875 "/></g></g></g><g fill="#f4f1ed" fill-opacity="1"><g transform="translate(129.598145, 233.364037)"><g><path d="M 6.0625 -2.046875 L 1.78125 -2.046875 L 0.859375 0 L 0.015625 0 L 3.53125 -7.671875 L 4.328125 -7.671875 L 7.84375 0 L 6.984375 0 Z M 5.765625 -2.703125 L 3.921875 -6.828125 L 2.078125 -2.703125 Z M 5.765625 -2.703125 "/></g></g></g><g fill="#f4f1ed" fill-opacity="1"><g transform="translate(139.109718, 233.364037)"><g><path d="M 1.25 -7.671875 L 2.0625 -7.671875 L 2.0625 -0.703125 L 6.359375 -0.703125 L 6.359375 0 L 1.25 0 Z M 1.25 -7.671875 "/></g></g></g><g fill="#f4f1ed" fill-opacity="1"><g transform="translate(147.217285, 233.364037)"><g/></g></g><g fill="#f4f1ed" fill-opacity="1"><g transform="translate(151.738055, 233.364037)"><g><path d="M 3.375 0.0625 C 2.800781 0.0625 2.25 -0.0234375 1.71875 -0.203125 C 1.195312 -0.390625 0.796875 -0.632812 0.515625 -0.9375 L 0.828125 -1.5625 C 1.109375 -1.28125 1.476562 -1.050781 1.9375 -0.875 C 2.394531 -0.707031 2.875 -0.625 3.375 -0.625 C 4.0625 -0.625 4.570312 -0.75 4.90625 -1 C 5.25 -1.25 5.421875 -1.578125 5.421875 -1.984375 C 5.421875 -2.296875 5.328125 -2.539062 5.140625 -2.71875 C 4.960938 -2.90625 4.738281 -3.046875 4.46875 -3.140625 C 4.195312 -3.242188 3.816406 -3.351562 3.328125 -3.46875 C 2.753906 -3.613281 2.296875 -3.753906 1.953125 -3.890625 C 1.609375 -4.023438 1.3125 -4.226562 1.0625 -4.5 C 0.820312 -4.78125 0.703125 -5.160156 0.703125 -5.640625 C 0.703125 -6.023438 0.800781 -6.375 1 -6.6875 C 1.207031 -7.007812 1.523438 -7.265625 1.953125 -7.453125 C 2.378906 -7.648438 2.90625 -7.75 3.53125 -7.75 C 3.96875 -7.75 4.394531 -7.6875 4.8125 -7.5625 C 5.238281 -7.4375 5.601562 -7.269531 5.90625 -7.0625 L 5.640625 -6.421875 C 5.316406 -6.628906 4.972656 -6.785156 4.609375 -6.890625 C 4.242188 -6.992188 3.882812 -7.046875 3.53125 -7.046875 C 2.851562 -7.046875 2.34375 -6.914062 2 -6.65625 C 1.664062 -6.40625 1.5 -6.070312 1.5 -5.65625 C 1.5 -5.351562 1.59375 -5.109375 1.78125 -4.921875 C 1.96875 -4.734375 2.203125 -4.585938 2.484375 -4.484375 C 2.765625 -4.390625 3.144531 -4.285156 3.625 -4.171875 C 4.1875 -4.023438 4.640625 -3.882812 4.984375 -3.75 C 5.328125 -3.613281 5.617188 -3.410156 5.859375 -3.140625 C 6.109375 -2.867188 6.234375 -2.5 6.234375 -2.03125 C 6.234375 -1.644531 6.128906 -1.289062 5.921875 -0.96875 C 5.710938 -0.65625 5.390625 -0.40625 4.953125 -0.21875 C 4.523438 -0.03125 4 0.0625 3.375 0.0625 Z M 3.375 0.0625 "/></g></g></g><g fill="#f4f1ed" fill-opacity="1"><g transform="translate(160.130808, 233.364037)"><g><path d="M 4.609375 0.0625 C 3.847656 0.0625 3.15625 -0.101562 2.53125 -0.4375 C 1.914062 -0.78125 1.4375 -1.25 1.09375 -1.84375 C 0.75 -2.4375 0.578125 -3.101562 0.578125 -3.84375 C 0.578125 -4.582031 0.75 -5.242188 1.09375 -5.828125 C 1.4375 -6.421875 1.914062 -6.890625 2.53125 -7.234375 C 3.15625 -7.578125 3.847656 -7.75 4.609375 -7.75 C 5.367188 -7.75 6.050781 -7.578125 6.65625 -7.234375 C 7.269531 -6.898438 7.75 -6.4375 8.09375 -5.84375 C 8.445312 -5.25 8.625 -4.582031 8.625 -3.84375 C 8.625 -3.101562 8.445312 -2.429688 8.09375 -1.828125 C 7.75 -1.234375 7.269531 -0.769531 6.65625 -0.4375 C 6.050781 -0.101562 5.367188 0.0625 4.609375 0.0625 Z M 4.609375 -0.65625 C 5.210938 -0.65625 5.757812 -0.789062 6.25 -1.0625 C 6.738281 -1.34375 7.125 -1.722656 7.40625 -2.203125 C 7.6875 -2.691406 7.828125 -3.238281 7.828125 -3.84375 C 7.828125 -4.4375 7.6875 -4.976562 7.40625 -5.46875 C 7.125 -5.957031 6.738281 -6.335938 6.25 -6.609375 C 5.757812 -6.878906 5.210938 -7.015625 4.609375 -7.015625 C 4.003906 -7.015625 3.453125 -6.878906 2.953125 -6.609375 C 2.460938 -6.335938 2.078125 -5.957031 1.796875 -5.46875 C 1.515625 -4.976562 1.375 -4.4375 1.375 -3.84375 C 1.375 -3.238281 1.515625 -2.691406 1.796875 -2.203125 C 2.078125 -1.722656 2.460938 -1.34375 2.953125 -1.0625 C 3.453125 -0.789062 4.003906 -0.65625 4.609375 -0.65625 Z M 4.609375 -0.65625 "/></g></g></g><g fill="#f4f1ed" fill-opacity="1"><g transform="translate(170.980573, 233.364037)"><g><path d="M 1.25 -7.671875 L 2.0625 -7.671875 L 2.0625 -0.703125 L 6.359375 -0.703125 L 6.359375 0 L 1.25 0 Z M 1.25 -7.671875 "/></g></g></g><g fill="#f4f1ed" fill-opacity="1"><g transform="translate(179.08814, 233.364037)"><g><path d="M 4.34375 0.0625 C 3.351562 0.0625 2.578125 -0.21875 2.015625 -0.78125 C 1.460938 -1.351562 1.1875 -2.1875 1.1875 -3.28125 L 1.1875 -7.671875 L 2 -7.671875 L 2 -3.3125 C 2 -2.414062 2.195312 -1.75 2.59375 -1.3125 C 3 -0.875 3.582031 -0.65625 4.34375 -0.65625 C 5.113281 -0.65625 5.695312 -0.875 6.09375 -1.3125 C 6.5 -1.75 6.703125 -2.414062 6.703125 -3.3125 L 6.703125 -7.671875 L 7.484375 -7.671875 L 7.484375 -3.28125 C 7.484375 -2.1875 7.207031 -1.351562 6.65625 -0.78125 C 6.101562 -0.21875 5.332031 0.0625 4.34375 0.0625 Z M 4.34375 0.0625 "/></g></g></g><g fill="#f4f1ed" fill-opacity="1"><g transform="translate(189.422371, 233.364037)"><g><path d="M 2.734375 -6.96875 L 0.046875 -6.96875 L 0.046875 -7.671875 L 6.25 -7.671875 L 6.25 -6.96875 L 3.546875 -6.96875 L 3.546875 0 L 2.734375 0 Z M 2.734375 -6.96875 "/></g></g></g><g fill="#f4f1ed" fill-opacity="1"><g transform="translate(197.365406, 233.364037)"><g><path d="M 1.25 -7.671875 L 2.0625 -7.671875 L 2.0625 0 L 1.25 0 Z M 1.25 -7.671875 "/></g></g></g><g fill="#f4f1ed" fill-opacity="1"><g transform="translate(202.324932, 233.364037)"><g><path d="M 4.609375 0.0625 C 3.847656 0.0625 3.15625 -0.101562 2.53125 -0.4375 C 1.914062 -0.78125 1.4375 -1.25 1.09375 -1.84375 C 0.75 -2.4375 0.578125 -3.101562 0.578125 -3.84375 C 0.578125 -4.582031 0.75 -5.242188 1.09375 -5.828125 C 1.4375 -6.421875 1.914062 -6.890625 2.53125 -7.234375 C 3.15625 -7.578125 3.847656 -7.75 4.609375 -7.75 C 5.367188 -7.75 6.050781 -7.578125 6.65625 -7.234375 C 7.269531 -6.898438 7.75 -6.4375 8.09375 -5.84375 C 8.445312 -5.25 8.625 -4.582031 8.625 -3.84375 C 8.625 -3.101562 8.445312 -2.429688 8.09375 -1.828125 C 7.75 -1.234375 7.269531 -0.769531 6.65625 -0.4375 C 6.050781 -0.101562 5.367188 0.0625 4.609375 0.0625 Z M 4.609375 -0.65625 C 5.210938 -0.65625 5.757812 -0.789062 6.25 -1.0625 C 6.738281 -1.34375 7.125 -1.722656 7.40625 -2.203125 C 7.6875 -2.691406 7.828125 -3.238281 7.828125 -3.84375 C 7.828125 -4.4375 7.6875 -4.976562 7.40625 -5.46875 C 7.125 -5.957031 6.738281 -6.335938 6.25 -6.609375 C 5.757812 -6.878906 5.210938 -7.015625 4.609375 -7.015625 C 4.003906 -7.015625 3.453125 -6.878906 2.953125 -6.609375 C 2.460938 -6.335938 2.078125 -5.957031 1.796875 -5.46875 C 1.515625 -4.976562 1.375 -4.4375 1.375 -3.84375 C 1.375 -3.238281 1.515625 -2.691406 1.796875 -2.203125 C 2.078125 -1.722656 2.460938 -1.34375 2.953125 -1.0625 C 3.453125 -0.789062 4.003906 -0.65625 4.609375 -0.65625 Z M 4.609375 -0.65625 "/></g></g></g><g fill="#f4f1ed" fill-opacity="1"><g transform="translate(213.174697, 233.364037)"><g><path d="M 7.671875 -7.671875 L 7.671875 0 L 7 0 L 2.0625 -6.234375 L 2.0625 0 L 1.25 0 L 1.25 -7.671875 L 1.921875 -7.671875 L 6.859375 -1.453125 L 6.859375 -7.671875 Z M 7.671875 -7.671875 "/></g></g></g><g fill="#f4f1ed" fill-opacity="1"><g transform="translate(223.739275, 233.364037)"><g><path d="M 3.375 0.0625 C 2.800781 0.0625 2.25 -0.0234375 1.71875 -0.203125 C 1.195312 -0.390625 0.796875 -0.632812 0.515625 -0.9375 L 0.828125 -1.5625 C 1.109375 -1.28125 1.476562 -1.050781 1.9375 -0.875 C 2.394531 -0.707031 2.875 -0.625 3.375 -0.625 C 4.0625 -0.625 4.570312 -0.75 4.90625 -1 C 5.25 -1.25 5.421875 -1.578125 5.421875 -1.984375 C 5.421875 -2.296875 5.328125 -2.539062 5.140625 -2.71875 C 4.960938 -2.90625 4.738281 -3.046875 4.46875 -3.140625 C 4.195312 -3.242188 3.816406 -3.351562 3.328125 -3.46875 C 2.753906 -3.613281 2.296875 -3.753906 1.953125 -3.890625 C 1.609375 -4.023438 1.3125 -4.226562 1.0625 -4.5 C 0.820312 -4.78125 0.703125 -5.160156 0.703125 -5.640625 C 0.703125 -6.023438 0.800781 -6.375 1 -6.6875 C 1.207031 -7.007812 1.523438 -7.265625 1.953125 -7.453125 C 2.378906 -7.648438 2.90625 -7.75 3.53125 -7.75 C 3.96875 -7.75 4.394531 -7.6875 4.8125 -7.5625 C 5.238281 -7.4375 5.601562 -7.269531 5.90625 -7.0625 L 5.640625 -6.421875 C 5.316406 -6.628906 4.972656 -6.785156 4.609375 -6.890625 C 4.242188 -6.992188 3.882812 -7.046875 3.53125 -7.046875 C 2.851562 -7.046875 2.34375 -6.914062 2 -6.65625 C 1.664062 -6.40625 1.5 -6.070312 1.5 -5.65625 C 1.5 -5.351562 1.59375 -5.109375 1.78125 -4.921875 C 1.96875 -4.734375 2.203125 -4.585938 2.484375 -4.484375 C 2.765625 -4.390625 3.144531 -4.285156 3.625 -4.171875 C 4.1875 -4.023438 4.640625 -3.882812 4.984375 -3.75 C 5.328125 -3.613281 5.617188 -3.410156 5.859375 -3.140625 C 6.109375 -2.867188 6.234375 -2.5 6.234375 -2.03125 C 6.234375 -1.644531 6.128906 -1.289062 5.921875 -0.96875 C 5.710938 -0.65625 5.390625 -0.40625 4.953125 -0.21875 C 4.523438 -0.03125 4 0.0625 3.375 0.0625 Z M 3.375 0.0625 "/></g></g></g><g fill="#f4f1ed" fill-opacity="1"><g transform="translate(232.132028, 233.364037)"><g/></g></g><g fill="#f4f1ed" fill-opacity="1"><g transform="translate(236.652802, 233.364037)"><g><path d="M -0.21875 -2.53125 L -0.21875 -3.078125 L 6.8125 -3.078125 L 6.8125 -2.53125 Z M -0.21875 -2.53125 "/></g></g></g></svg>