<svg xmlns="http://www.w3.org/2000/svg" xmlns:xlink="http://www.w3.org/1999/xlink" width="500" zoomAndPan="magnify" viewBox="0 0 375 374.999991" height="500" preserveAspectRatio="xMidYMid meet" version="1.0"><defs><g/><clipPath id="a4e521c38e"><path d="M 0.078125 5 L 6 5 L 6 6 L 0.078125 6 Z M 0.078125 5 " clip-rule="nonzero"/></clipPath><clipPath id="c16e261ccd"><rect x="0" width="138" y="0" height="11"/></clipPath></defs><rect x="-37.5" width="450" fill="#ffffff" y="-37.499999" height="449.999989" fill-opacity="1"/><rect x="-37.5" width="450" fill="#1e3d34" y="-37.499999" height="449.999989" fill-opacity="1"/><g fill="#ffffff" fill-opacity="0.4"><g transform="translate(25.845265, 173.607089)"><g><path d="M 29.609375 -39.75 C 30.804688 -39.75 31.816406 -39.519531 32.640625 -39.0625 C 33.460938 -38.601562 34.128906 -38.003906 34.640625 -37.265625 C 35.148438 -36.535156 35.519531 -35.738281 35.75 -34.875 C 35.976562 -34.007812 36.09375 -33.171875 36.09375 -32.359375 C 36.09375 -30.679688 35.832031 -28.769531 35.3125 -26.625 C 34.789062 -24.476562 34.019531 -22.25 33 -19.9375 C 31.988281 -17.625 30.757812 -15.382812 29.3125 -13.21875 C 27.863281 -11.0625 26.207031 -9.101562 24.34375 -7.34375 C 22.488281 -5.59375 20.457031 -4.203125 18.25 -3.171875 C 16.039062 -2.148438 13.664062 -1.640625 11.125 -1.640625 C 10.363281 -1.640625 9.617188 -1.707031 8.890625 -1.84375 C 8.171875 -1.988281 7.457031 -2.1875 6.75 -2.4375 C 6.363281 -1.289062 6.007812 -0.15625 5.6875 0.96875 C 5.375 2.101562 5.078125 3.203125 4.796875 4.265625 C 4.671875 4.796875 4.53125 5.492188 4.375 6.359375 C 4.226562 7.222656 4.085938 8.160156 3.953125 9.171875 C 3.828125 10.191406 3.734375 11.1875 3.671875 12.15625 C 3.609375 13.125 3.578125 13.960938 3.578125 14.671875 C 3.578125 14.953125 3.429688 15.046875 3.140625 14.953125 C 2.847656 14.867188 2.515625 14.6875 2.140625 14.40625 C 1.773438 14.125 1.445312 13.816406 1.15625 13.484375 C 0.863281 13.160156 0.71875 12.882812 0.71875 12.65625 C 0.695312 10.0625 0.863281 7.269531 1.21875 4.28125 C 1.570312 1.300781 2.066406 -1.722656 2.703125 -4.796875 C 1.484375 -5.765625 0.46875 -6.882812 -0.34375 -8.15625 C -1.15625 -9.425781 -1.664062 -10.695312 -1.875 -11.96875 C -1.914062 -12.269531 -1.832031 -12.394531 -1.625 -12.34375 C -1.425781 -12.289062 -1.175781 -12.128906 -0.875 -11.859375 C -0.570312 -11.597656 -0.304688 -11.296875 -0.078125 -10.953125 C 0.148438 -10.609375 0.265625 -10.296875 0.265625 -10.015625 C 0.265625 -9.460938 0.410156 -8.90625 0.703125 -8.34375 C 0.992188 -7.78125 1.367188 -7.285156 1.828125 -6.859375 C 1.953125 -6.753906 2.101562 -6.597656 2.28125 -6.390625 C 2.457031 -6.191406 2.675781 -5.976562 2.9375 -5.75 C 3.675781 -9.15625 4.519531 -12.519531 5.46875 -15.84375 C 6.414062 -19.175781 7.414062 -22.332031 8.46875 -25.3125 C 9.53125 -28.300781 10.554688 -30.984375 11.546875 -33.359375 C 12.535156 -35.734375 13.441406 -37.671875 14.265625 -39.171875 C 15.097656 -40.671875 15.753906 -41.597656 16.234375 -41.953125 C 16.410156 -42.085938 16.726562 -42.039062 17.1875 -41.8125 C 17.644531 -41.582031 18.109375 -41.28125 18.578125 -40.90625 C 19.046875 -40.539062 19.410156 -40.195312 19.671875 -39.875 C 19.941406 -39.5625 19.960938 -39.367188 19.734375 -39.296875 C 19.253906 -39.117188 18.753906 -38.859375 18.234375 -38.515625 C 17.710938 -38.171875 17.171875 -37.476562 16.609375 -36.4375 C 15.210938 -33.8125 13.8125 -30.882812 12.40625 -27.65625 C 11 -24.4375 9.675781 -20.867188 8.4375 -16.953125 C 7.207031 -13.046875 6.160156 -8.742188 5.296875 -4.046875 C 5.421875 -3.992188 5.546875 -3.925781 5.671875 -3.84375 C 5.804688 -3.769531 5.945312 -3.707031 6.09375 -3.65625 C 7.007812 -6.25 8.019531 -8.9375 9.125 -11.71875 C 10.226562 -14.5 11.414062 -17.234375 12.6875 -19.921875 C 13.957031 -22.617188 15.285156 -25.160156 16.671875 -27.546875 C 18.054688 -29.941406 19.472656 -32.050781 20.921875 -33.875 C 22.367188 -35.707031 23.820312 -37.144531 25.28125 -38.1875 C 26.75 -39.226562 28.191406 -39.75 29.609375 -39.75 Z M 9.6875 -2.96875 C 11.6875 -2.96875 13.609375 -3.367188 15.453125 -4.171875 C 17.296875 -4.972656 19.035156 -6.066406 20.671875 -7.453125 C 22.304688 -8.835938 23.816406 -10.414062 25.203125 -12.1875 C 26.585938 -13.96875 27.828125 -15.847656 28.921875 -17.828125 C 30.015625 -19.816406 30.945312 -21.800781 31.71875 -23.78125 C 32.5 -25.757812 33.09375 -27.648438 33.5 -29.453125 C 33.90625 -31.265625 34.109375 -32.867188 34.109375 -34.265625 C 34.109375 -35.378906 33.859375 -36.316406 33.359375 -37.078125 C 32.867188 -37.835938 32.050781 -38.21875 30.90625 -38.21875 C 29.53125 -38.21875 28.117188 -37.738281 26.671875 -36.78125 C 25.222656 -35.832031 23.757812 -34.507812 22.28125 -32.8125 C 20.8125 -31.113281 19.363281 -29.144531 17.9375 -26.90625 C 16.519531 -24.664062 15.148438 -22.242188 13.828125 -19.640625 C 12.515625 -17.035156 11.285156 -14.347656 10.140625 -11.578125 C 8.992188 -8.816406 7.960938 -6.078125 7.046875 -3.359375 C 7.429688 -3.253906 7.84375 -3.160156 8.28125 -3.078125 C 8.726562 -3.003906 9.195312 -2.96875 9.6875 -2.96875 Z M 4.453125 1.25 C 4.835938 -0.0390625 5.285156 -1.410156 5.796875 -2.859375 C 5.691406 -2.910156 5.582031 -2.96875 5.46875 -3.03125 C 5.351562 -3.09375 5.242188 -3.148438 5.140625 -3.203125 C 4.890625 -1.753906 4.660156 -0.269531 4.453125 1.25 Z M 4.453125 1.25 "/></g></g></g><g fill="#ffffff" fill-opacity="0.4"><g transform="translate(54.418563, 173.607089)"><g><path d="M 2.4375 2.171875 C 2.28125 2.554688 2.050781 2.679688 1.75 2.546875 C 1.445312 2.421875 1.140625 2.160156 0.828125 1.765625 C 0.523438 1.378906 0.285156 0.945312 0.109375 0.46875 C -0.0664062 0 -0.101562 -0.382812 0 -0.6875 C 0.0703125 -0.882812 0.234375 -1.390625 0.484375 -2.203125 C 0.742188 -3.023438 1.054688 -4.007812 1.421875 -5.15625 C 1.796875 -6.3125 2.175781 -7.550781 2.5625 -8.875 C 2.957031 -10.195312 3.328125 -11.476562 3.671875 -12.71875 C 4.015625 -13.96875 4.296875 -15.082031 4.515625 -16.0625 C 4.734375 -17.039062 4.84375 -17.757812 4.84375 -18.21875 C 4.84375 -18.445312 4.972656 -18.515625 5.234375 -18.421875 C 5.503906 -18.335938 5.8125 -18.148438 6.15625 -17.859375 C 6.5 -17.566406 6.785156 -17.25 7.015625 -16.90625 C 7.242188 -16.5625 7.316406 -16.25 7.234375 -15.96875 C 7.191406 -15.789062 7.03125 -15.300781 6.75 -14.5 C 6.46875 -13.695312 6.128906 -12.722656 5.734375 -11.578125 C 5.335938 -10.441406 4.9375 -9.273438 4.53125 -8.078125 C 4.125 -6.878906 3.757812 -5.796875 3.4375 -4.828125 C 3.125 -3.867188 2.914062 -3.140625 2.8125 -2.640625 C 2.71875 -2.148438 2.769531 -2.054688 2.96875 -2.359375 C 3.226562 -2.710938 3.632812 -3.296875 4.1875 -4.109375 C 4.75 -4.921875 5.390625 -5.820312 6.109375 -6.8125 C 6.835938 -7.8125 7.585938 -8.765625 8.359375 -9.671875 C 9.140625 -10.585938 9.882812 -11.34375 10.59375 -11.9375 C 11.300781 -12.539062 11.898438 -12.832031 12.390625 -12.8125 C 12.921875 -12.8125 13.335938 -12.539062 13.640625 -12 C 13.941406 -11.46875 14.1875 -10.863281 14.375 -10.1875 C 14.570312 -9.519531 14.757812 -8.941406 14.9375 -8.453125 C 15.144531 -7.972656 15.363281 -7.722656 15.59375 -7.703125 C 15.96875 -7.648438 16.453125 -7.75 17.046875 -8 C 17.648438 -8.257812 18.289062 -8.597656 18.96875 -9.015625 C 19.65625 -9.429688 20.316406 -9.867188 20.953125 -10.328125 C 21.585938 -10.785156 22.140625 -11.203125 22.609375 -11.578125 C 23.085938 -11.960938 23.398438 -12.21875 23.546875 -12.34375 C 23.953125 -12.695312 24.222656 -12.738281 24.359375 -12.46875 C 24.503906 -12.207031 24.398438 -11.925781 24.046875 -11.625 C 23.890625 -11.5 23.59375 -11.234375 23.15625 -10.828125 C 22.726562 -10.421875 22.222656 -9.957031 21.640625 -9.4375 C 21.054688 -8.914062 20.453125 -8.398438 19.828125 -7.890625 C 19.210938 -7.378906 18.632812 -6.957031 18.09375 -6.625 C 17.5625 -6.300781 17.132812 -6.125 16.8125 -6.09375 C 15.894531 -6.070312 15.15625 -6.359375 14.59375 -6.953125 C 14.03125 -7.546875 13.613281 -8.1875 13.34375 -8.875 C 13.113281 -9.457031 12.925781 -9.960938 12.78125 -10.390625 C 12.644531 -10.828125 12.4375 -11.035156 12.15625 -11.015625 C 11.675781 -10.960938 11.125 -10.644531 10.5 -10.0625 C 9.875 -9.476562 9.210938 -8.726562 8.515625 -7.8125 C 7.816406 -6.894531 7.128906 -5.914062 6.453125 -4.875 C 5.785156 -3.832031 5.164062 -2.816406 4.59375 -1.828125 C 4.019531 -0.835938 3.539062 0.0078125 3.15625 0.71875 C 2.78125 1.4375 2.539062 1.921875 2.4375 2.171875 Z M 2.4375 2.171875 "/></g></g></g><g fill="#ffffff" fill-opacity="0.4"><g transform="translate(73.315046, 173.607089)"><g><path d="M 21 -11.921875 C 21.070312 -12.054688 21.207031 -12.101562 21.40625 -12.0625 C 21.613281 -12.019531 21.785156 -11.925781 21.921875 -11.78125 C 22.066406 -11.644531 22.078125 -11.503906 21.953125 -11.359375 C 21.492188 -10.722656 20.859375 -9.984375 20.046875 -9.140625 C 19.234375 -8.304688 18.273438 -7.46875 17.171875 -6.625 C 16.066406 -5.789062 14.847656 -5.070312 13.515625 -4.46875 C 12.179688 -3.875 10.765625 -3.503906 9.265625 -3.359375 C 8.648438 -2.234375 8 -1.207031 7.3125 -0.28125 C 6.625 0.644531 5.953125 1.375 5.296875 1.90625 C 4.640625 2.4375 4.03125 2.703125 3.46875 2.703125 C 2.90625 2.703125 2.382812 2.515625 1.90625 2.140625 C 1.425781 1.773438 1.039062 1.328125 0.75 0.796875 C 0.457031 0.265625 0.3125 -0.253906 0.3125 -0.765625 C 0.332031 -1.503906 0.414062 -2.257812 0.5625 -3.03125 C 0.71875 -3.800781 0.925781 -4.566406 1.1875 -5.328125 C 0.5 -5.890625 0.00390625 -6.519531 -0.296875 -7.21875 C -0.609375 -7.914062 -0.765625 -8.625 -0.765625 -9.34375 C -0.765625 -10.632812 -0.476562 -11.804688 0.09375 -12.859375 C 0.664062 -13.910156 1.410156 -14.816406 2.328125 -15.578125 C 3.242188 -16.347656 4.234375 -16.9375 5.296875 -17.34375 C 6.359375 -17.75 7.398438 -17.953125 8.421875 -17.953125 C 9.535156 -17.953125 10.5 -17.585938 11.3125 -16.859375 C 12.125 -16.140625 12.53125 -15.195312 12.53125 -14.03125 C 12.53125 -12.65625 12.265625 -11.085938 11.734375 -9.328125 C 11.203125 -7.578125 10.53125 -5.878906 9.71875 -4.234375 C 10.957031 -4.410156 12.269531 -4.800781 13.65625 -5.40625 C 15.039062 -6.019531 16.375 -6.863281 17.65625 -7.9375 C 18.945312 -9.019531 20.0625 -10.347656 21 -11.921875 Z M 1.328125 -8.453125 C 1.328125 -7.847656 1.457031 -7.289062 1.71875 -6.78125 C 2.195312 -7.894531 2.707031 -8.910156 3.25 -9.828125 C 3.800781 -10.742188 4.332031 -11.472656 4.84375 -12.015625 C 5.351562 -12.566406 5.742188 -12.84375 6.015625 -12.84375 C 6.703125 -12.84375 7.195312 -12.625 7.5 -12.1875 C 7.8125 -11.757812 7.878906 -11.394531 7.703125 -11.09375 C 7.210938 -10.195312 6.691406 -9.175781 6.140625 -8.03125 C 5.597656 -6.894531 5.101562 -5.769531 4.65625 -4.65625 C 5.15625 -4.5 5.71875 -4.375 6.34375 -4.28125 C 6.96875 -4.195312 7.660156 -4.15625 8.421875 -4.15625 L 8.65625 -4.15625 C 9.46875 -5.726562 10.144531 -7.425781 10.6875 -9.25 C 11.238281 -11.082031 11.515625 -12.835938 11.515625 -14.515625 C 11.515625 -15.304688 11.300781 -15.929688 10.875 -16.390625 C 10.457031 -16.847656 9.921875 -17.078125 9.265625 -17.078125 C 8.367188 -17.078125 7.519531 -16.847656 6.71875 -16.390625 C 5.925781 -15.929688 5.195312 -15.34375 4.53125 -14.625 C 3.875 -13.914062 3.300781 -13.160156 2.8125 -12.359375 C 2.332031 -11.566406 1.960938 -10.816406 1.703125 -10.109375 C 1.453125 -9.410156 1.328125 -8.859375 1.328125 -8.453125 Z M 3.46875 1.75 C 4.070312 1.75 4.8125 1.269531 5.6875 0.3125 C 6.570312 -0.632812 7.421875 -1.84375 8.234375 -3.3125 L 8.15625 -3.3125 C 6.65625 -3.3125 5.375 -3.460938 4.3125 -3.765625 C 3.925781 -2.773438 3.601562 -1.859375 3.34375 -1.015625 C 3.09375 -0.179688 2.96875 0.484375 2.96875 0.984375 C 2.96875 1.492188 3.132812 1.75 3.46875 1.75 Z M 3.46875 1.75 "/></g></g></g><g fill="#ffffff" fill-opacity="0.4"><g transform="translate(90.039956, 173.607089)"><g><path d="M 26.375 -10.90625 C 26.5 -11.050781 26.734375 -11.101562 27.078125 -11.0625 C 27.421875 -11.03125 27.695312 -10.925781 27.90625 -10.75 C 28.125 -10.570312 28.09375 -10.328125 27.8125 -10.015625 C 27.613281 -9.796875 27.226562 -9.429688 26.65625 -8.921875 C 26.082031 -8.410156 25.40625 -7.875 24.625 -7.3125 C 23.851562 -6.757812 23.0625 -6.285156 22.25 -5.890625 C 21.4375 -5.492188 20.6875 -5.296875 20 -5.296875 C 19.238281 -5.296875 18.519531 -5.566406 17.84375 -6.109375 C 17.175781 -6.660156 16.601562 -7.304688 16.125 -8.046875 C 15.40625 -6.847656 14.585938 -5.535156 13.671875 -4.109375 C 12.765625 -2.691406 11.816406 -1.285156 10.828125 0.109375 C 9.835938 1.503906 8.867188 2.773438 7.921875 3.921875 C 6.984375 5.066406 6.132812 5.988281 5.375 6.6875 C 4.613281 7.382812 3.988281 7.734375 3.5 7.734375 C 3.039062 7.734375 2.53125 7.570312 1.96875 7.25 C 1.414062 6.9375 0.9375 6.390625 0.53125 5.609375 C 0.125 4.835938 -0.078125 3.753906 -0.078125 2.359375 C -0.078125 1.523438 0.0625 0.476562 0.34375 -0.78125 C 0.625 -2.039062 0.96875 -3.351562 1.375 -4.71875 C 1.78125 -6.09375 2.175781 -7.382812 2.5625 -8.59375 C 2.957031 -9.800781 3.296875 -10.789062 3.578125 -11.5625 C 3.859375 -12.34375 4 -12.757812 4 -12.8125 C 4 -12.9375 4.007812 -13.101562 4.03125 -13.3125 C 4.0625 -13.53125 4.015625 -13.882812 3.890625 -14.375 C 3.835938 -14.59375 3.96875 -14.691406 4.28125 -14.671875 C 4.601562 -14.648438 4.992188 -14.523438 5.453125 -14.296875 C 5.910156 -14.066406 6.316406 -13.753906 6.671875 -13.359375 C 7.023438 -12.960938 7.203125 -12.507812 7.203125 -12 C 7.203125 -11.59375 7.023438 -10.96875 6.671875 -10.125 C 6.316406 -9.289062 5.882812 -8.316406 5.375 -7.203125 C 4.863281 -6.085938 4.347656 -4.898438 3.828125 -3.640625 C 3.304688 -2.378906 2.867188 -1.113281 2.515625 0.15625 C 2.160156 1.425781 1.984375 2.628906 1.984375 3.765625 C 1.984375 5.210938 2.398438 5.898438 3.234375 5.828125 C 3.867188 5.753906 4.582031 5.390625 5.375 4.734375 C 6.164062 4.085938 6.988281 3.238281 7.84375 2.1875 C 8.707031 1.132812 9.582031 -0.0351562 10.46875 -1.328125 C 11.363281 -2.628906 12.226562 -3.972656 13.0625 -5.359375 C 13.90625 -6.742188 14.695312 -8.082031 15.4375 -9.375 C 15.28125 -9.757812 15.15625 -10.128906 15.0625 -10.484375 C 14.976562 -10.835938 14.9375 -11.164062 14.9375 -11.46875 C 14.9375 -12.132812 15.0625 -12.734375 15.3125 -13.265625 C 15.570312 -13.796875 15.90625 -14.0625 16.3125 -14.0625 C 16.738281 -14.0625 17.195312 -13.929688 17.6875 -13.671875 C 18.1875 -13.421875 18.4375 -13.054688 18.4375 -12.578125 C 18.4375 -12.398438 18.296875 -12.03125 18.015625 -11.46875 C 17.742188 -10.90625 17.363281 -10.195312 16.875 -9.34375 C 17.082031 -8.625 17.40625 -7.984375 17.84375 -7.421875 C 18.289062 -6.867188 18.921875 -6.59375 19.734375 -6.59375 C 20.546875 -6.59375 21.328125 -6.789062 22.078125 -7.1875 C 22.828125 -7.582031 23.503906 -8.046875 24.109375 -8.578125 C 24.722656 -9.109375 25.226562 -9.601562 25.625 -10.0625 C 26.019531 -10.519531 26.269531 -10.800781 26.375 -10.90625 Z M 26.375 -10.90625 "/></g></g></g><g fill="#ffffff" fill-opacity="0.4"><g transform="translate(112.098544, 173.607089)"><g><path d="M 21.375 -11.46875 C 21.601562 -11.75 21.789062 -11.832031 21.9375 -11.71875 C 22.09375 -11.601562 22.179688 -11.410156 22.203125 -11.140625 C 22.234375 -10.878906 22.132812 -10.632812 21.90625 -10.40625 C 21.53125 -10 20.957031 -9.394531 20.1875 -8.59375 C 19.425781 -7.789062 18.546875 -6.878906 17.546875 -5.859375 C 16.546875 -4.847656 15.492188 -3.820312 14.390625 -2.78125 C 13.285156 -1.738281 12.1875 -0.78125 11.09375 0.09375 C 10 0.96875 8.988281 1.675781 8.0625 2.21875 C 7.132812 2.769531 6.335938 3.046875 5.671875 3.046875 C 4.222656 3.046875 3.019531 2.609375 2.0625 1.734375 C 1.113281 0.859375 0.640625 -0.46875 0.640625 -2.25 C 0.640625 -3.394531 0.820312 -4.578125 1.1875 -5.796875 C 1.5625 -7.015625 2.0625 -8.1875 2.6875 -9.3125 C 3.3125 -10.445312 4.015625 -11.46875 4.796875 -12.375 C 5.585938 -13.289062 6.414062 -14.015625 7.28125 -14.546875 C 8.144531 -15.085938 8.992188 -15.359375 9.828125 -15.359375 C 10.742188 -15.359375 11.441406 -15.144531 11.921875 -14.71875 C 12.410156 -14.300781 12.65625 -13.753906 12.65625 -13.078125 C 12.65625 -12.484375 12.453125 -11.832031 12.046875 -11.125 C 11.640625 -10.414062 11.125 -9.8125 10.5 -9.3125 C 9.875 -8.820312 9.207031 -8.578125 8.5 -8.578125 C 7.863281 -8.578125 7.367188 -8.734375 7.015625 -9.046875 C 6.660156 -9.367188 6.328125 -9.71875 6.015625 -10.09375 C 5.148438 -8.800781 4.40625 -7.320312 3.78125 -5.65625 C 3.164062 -3.988281 2.859375 -2.332031 2.859375 -0.6875 C 2.859375 0.175781 3.0625 0.875 3.46875 1.40625 C 3.875 1.9375 4.472656 2.203125 5.265625 2.203125 C 5.941406 2.179688 6.789062 1.863281 7.8125 1.25 C 8.832031 0.644531 9.921875 -0.132812 11.078125 -1.09375 C 12.234375 -2.0625 13.378906 -3.101562 14.515625 -4.21875 C 15.660156 -5.34375 16.722656 -6.421875 17.703125 -7.453125 C 18.679688 -8.484375 19.5 -9.363281 20.15625 -10.09375 C 20.820312 -10.832031 21.226562 -11.289062 21.375 -11.46875 Z M 10.96875 -14.25 C 10.332031 -14.25 9.59375 -13.90625 8.75 -13.21875 C 7.914062 -12.53125 7.09375 -11.628906 6.28125 -10.515625 C 6.488281 -10.265625 6.722656 -10.0625 6.984375 -9.90625 C 7.253906 -9.757812 7.503906 -9.6875 7.734375 -9.6875 C 8.066406 -9.6875 8.523438 -9.867188 9.109375 -10.234375 C 9.691406 -10.597656 10.222656 -11.09375 10.703125 -11.71875 C 11.191406 -12.34375 11.4375 -13.019531 11.4375 -13.75 C 11.4375 -14.082031 11.28125 -14.25 10.96875 -14.25 Z M 10.96875 -14.25 "/></g></g></g><g fill="#ffffff" fill-opacity="0.4"><g transform="translate(129.433012, 173.607089)"><g><path d="M 2.4375 2.171875 C 2.28125 2.554688 2.050781 2.679688 1.75 2.546875 C 1.445312 2.421875 1.140625 2.160156 0.828125 1.765625 C 0.523438 1.378906 0.285156 0.945312 0.109375 0.46875 C -0.0664062 0 -0.101562 -0.382812 0 -0.6875 C 0.0703125 -0.882812 0.234375 -1.390625 0.484375 -2.203125 C 0.742188 -3.023438 1.054688 -4.007812 1.421875 -5.15625 C 1.796875 -6.3125 2.175781 -7.550781 2.5625 -8.875 C 2.957031 -10.195312 3.328125 -11.476562 3.671875 -12.71875 C 4.015625 -13.96875 4.296875 -15.082031 4.515625 -16.0625 C 4.734375 -17.039062 4.84375 -17.757812 4.84375 -18.21875 C 4.84375 -18.445312 4.972656 -18.515625 5.234375 -18.421875 C 5.503906 -18.335938 5.8125 -18.148438 6.15625 -17.859375 C 6.5 -17.566406 6.785156 -17.25 7.015625 -16.90625 C 7.242188 -16.5625 7.316406 -16.25 7.234375 -15.96875 C 7.191406 -15.789062 7.03125 -15.300781 6.75 -14.5 C 6.46875 -13.695312 6.128906 -12.722656 5.734375 -11.578125 C 5.335938 -10.441406 4.9375 -9.273438 4.53125 -8.078125 C 4.125 -6.878906 3.757812 -5.796875 3.4375 -4.828125 C 3.125 -3.867188 2.914062 -3.140625 2.8125 -2.640625 C 2.71875 -2.148438 2.769531 -2.054688 2.96875 -2.359375 C 3.226562 -2.710938 3.632812 -3.296875 4.1875 -4.109375 C 4.75 -4.921875 5.390625 -5.820312 6.109375 -6.8125 C 6.835938 -7.8125 7.585938 -8.765625 8.359375 -9.671875 C 9.140625 -10.585938 9.882812 -11.34375 10.59375 -11.9375 C 11.300781 -12.539062 11.898438 -12.832031 12.390625 -12.8125 C 12.921875 -12.8125 13.335938 -12.539062 13.640625 -12 C 13.941406 -11.46875 14.1875 -10.863281 14.375 -10.1875 C 14.570312 -9.519531 14.757812 -8.941406 14.9375 -8.453125 C 15.144531 -7.972656 15.363281 -7.722656 15.59375 -7.703125 C 15.96875 -7.648438 16.453125 -7.75 17.046875 -8 C 17.648438 -8.257812 18.289062 -8.597656 18.96875 -9.015625 C 19.65625 -9.429688 20.316406 -9.867188 20.953125 -10.328125 C 21.585938 -10.785156 22.140625 -11.203125 22.609375 -11.578125 C 23.085938 -11.960938 23.398438 -12.21875 23.546875 -12.34375 C 23.953125 -12.695312 24.222656 -12.738281 24.359375 -12.46875 C 24.503906 -12.207031 24.398438 -11.925781 24.046875 -11.625 C 23.890625 -11.5 23.59375 -11.234375 23.15625 -10.828125 C 22.726562 -10.421875 22.222656 -9.957031 21.640625 -9.4375 C 21.054688 -8.914062 20.453125 -8.398438 19.828125 -7.890625 C 19.210938 -7.378906 18.632812 -6.957031 18.09375 -6.625 C 17.5625 -6.300781 17.132812 -6.125 16.8125 -6.09375 C 15.894531 -6.070312 15.15625 -6.359375 14.59375 -6.953125 C 14.03125 -7.546875 13.613281 -8.1875 13.34375 -8.875 C 13.113281 -9.457031 12.925781 -9.960938 12.78125 -10.390625 C 12.644531 -10.828125 12.4375 -11.035156 12.15625 -11.015625 C 11.675781 -10.960938 11.125 -10.644531 10.5 -10.0625 C 9.875 -9.476562 9.210938 -8.726562 8.515625 -7.8125 C 7.816406 -6.894531 7.128906 -5.914062 6.453125 -4.875 C 5.785156 -3.832031 5.164062 -2.816406 4.59375 -1.828125 C 4.019531 -0.835938 3.539062 0.0078125 3.15625 0.71875 C 2.78125 1.4375 2.539062 1.921875 2.4375 2.171875 Z M 2.4375 2.171875 "/></g></g></g><g fill="#ffffff" fill-opacity="0.4"><g transform="translate(148.329495, 173.607089)"><g><path d="M 28.65625 -11.015625 C 28.78125 -11.066406 28.929688 -11.015625 29.109375 -10.859375 C 29.285156 -10.703125 29.398438 -10.53125 29.453125 -10.34375 C 29.503906 -10.15625 29.390625 -10.007812 29.109375 -9.90625 C 27.835938 -9.476562 26.257812 -8.734375 24.375 -7.671875 C 22.5 -6.617188 20.5625 -5.421875 18.5625 -4.078125 C 17.769531 -2.148438 16.851562 -0.289062 15.8125 1.5 C 14.769531 3.289062 13.707031 4.894531 12.625 6.3125 C 11.550781 7.738281 10.550781 8.867188 9.625 9.703125 C 8.695312 10.546875 7.96875 10.96875 7.4375 10.96875 C 7.207031 10.96875 6.832031 10.890625 6.3125 10.734375 C 5.789062 10.585938 5.3125 10.335938 4.875 9.984375 C 4.445312 9.628906 4.234375 9.160156 4.234375 8.578125 C 4.234375 7.816406 4.550781 6.945312 5.1875 5.96875 C 5.820312 4.988281 6.691406 3.9375 7.796875 2.8125 C 8.898438 1.695312 10.160156 0.5625 11.578125 -0.59375 C 13.003906 -1.75 14.492188 -2.875 16.046875 -3.96875 C 16.859375 -5.875 17.523438 -7.703125 18.046875 -9.453125 C 18.566406 -11.203125 18.828125 -12.660156 18.828125 -13.828125 C 18.828125 -14.035156 18.769531 -14.195312 18.65625 -14.3125 C 18.539062 -14.425781 18.304688 -14.484375 17.953125 -14.484375 C 17.210938 -14.484375 16.414062 -14.140625 15.5625 -13.453125 C 14.71875 -12.765625 13.847656 -11.847656 12.953125 -10.703125 C 12.066406 -9.566406 11.1875 -8.285156 10.3125 -6.859375 C 9.4375 -5.429688 8.597656 -3.960938 7.796875 -2.453125 C 6.992188 -0.941406 6.265625 0.507812 5.609375 1.90625 C 4.785156 3.632812 4.03125 5.34375 3.34375 7.03125 C 2.664062 8.71875 2.066406 10.253906 1.546875 11.640625 C 1.023438 13.023438 0.578125 14.128906 0.203125 14.953125 C -0.160156 15.785156 -0.429688 16.203125 -0.609375 16.203125 C -0.835938 16.203125 -1.128906 16.160156 -1.484375 16.078125 C -1.835938 16.003906 -2.144531 15.851562 -2.40625 15.625 C -2.675781 15.394531 -2.800781 15.039062 -2.78125 14.5625 C -2.675781 13.03125 -2.398438 11.207031 -1.953125 9.09375 C -1.515625 6.988281 -0.957031 4.722656 -0.28125 2.296875 C 0.382812 -0.117188 1.113281 -2.582031 1.90625 -5.09375 C 2.695312 -7.613281 3.484375 -10.039062 4.265625 -12.375 C 5.054688 -14.71875 5.789062 -16.851562 6.46875 -18.78125 C 7.15625 -20.71875 7.726562 -22.3125 8.1875 -23.5625 C 8.644531 -24.820312 8.925781 -25.617188 9.03125 -25.953125 C 9.1875 -26.410156 9.4375 -27.078125 9.78125 -27.953125 C 10.125 -28.828125 10.507812 -29.78125 10.9375 -30.8125 C 11.363281 -31.84375 11.789062 -32.828125 12.21875 -33.765625 C 12.65625 -34.703125 13.054688 -35.46875 13.421875 -36.0625 C 13.796875 -36.664062 14.070312 -36.976562 14.25 -37 C 14.738281 -37.050781 15.234375 -36.914062 15.734375 -36.59375 C 16.242188 -36.28125 16.660156 -35.921875 16.984375 -35.515625 C 17.316406 -35.109375 17.445312 -34.765625 17.375 -34.484375 C 17.351562 -34.390625 17.203125 -34.363281 16.921875 -34.40625 C 16.640625 -34.457031 16.359375 -34.382812 16.078125 -34.1875 C 15.523438 -33.78125 15.003906 -33.207031 14.515625 -32.46875 C 14.035156 -31.726562 13.515625 -30.75 12.953125 -29.53125 C 12.828125 -29.25 12.5 -28.460938 11.96875 -27.171875 C 11.4375 -25.878906 10.773438 -24.191406 9.984375 -22.109375 C 9.191406 -20.023438 8.316406 -17.632812 7.359375 -14.9375 C 6.410156 -12.25 5.4375 -9.359375 4.4375 -6.265625 C 3.4375 -3.179688 2.472656 0.0195312 1.546875 3.34375 C 0.617188 6.675781 -0.222656 10.007812 -0.984375 13.34375 C -0.859375 13.113281 -0.597656 12.535156 -0.203125 11.609375 C 0.179688 10.679688 0.675781 9.503906 1.28125 8.078125 C 1.894531 6.648438 2.597656 5.078125 3.390625 3.359375 C 4.179688 1.648438 5.03125 -0.0859375 5.9375 -1.859375 C 6.851562 -3.640625 7.800781 -5.351562 8.78125 -7 C 9.757812 -8.65625 10.75 -10.140625 11.75 -11.453125 C 12.757812 -12.765625 13.753906 -13.804688 14.734375 -14.578125 C 15.710938 -15.347656 16.644531 -15.734375 17.53125 -15.734375 C 18.320312 -15.734375 19.019531 -15.457031 19.625 -14.90625 C 20.238281 -14.363281 20.546875 -13.648438 20.546875 -12.765625 C 20.546875 -11.753906 20.4375 -10.679688 20.21875 -9.546875 C 20 -8.410156 19.703125 -7.273438 19.328125 -6.140625 C 21.046875 -7.253906 22.71875 -8.234375 24.34375 -9.078125 C 25.976562 -9.929688 27.414062 -10.578125 28.65625 -11.015625 Z M 6.78125 9.453125 C 7.46875 9.328125 8.273438 8.742188 9.203125 7.703125 C 10.128906 6.660156 11.09375 5.320312 12.09375 3.6875 C 13.101562 2.0625 14.050781 0.335938 14.9375 -1.484375 C 13.289062 -0.242188 11.773438 1.003906 10.390625 2.265625 C 9.003906 3.523438 7.894531 4.707031 7.0625 5.8125 C 6.238281 6.914062 5.828125 7.863281 5.828125 8.65625 C 5.828125 8.851562 5.898438 9.046875 6.046875 9.234375 C 6.203125 9.429688 6.445312 9.503906 6.78125 9.453125 Z M 6.78125 9.453125 "/></g></g></g><g fill="#ffffff" fill-opacity="0.4"><g transform="translate(173.435908, 173.607089)"><g><path d="M 21.796875 -9.34375 C 21.921875 -9.382812 22.046875 -9.285156 22.171875 -9.046875 C 22.304688 -8.804688 22.304688 -8.660156 22.171875 -8.609375 C 21.109375 -8.253906 19.828125 -7.675781 18.328125 -6.875 C 16.828125 -6.070312 15.210938 -5.113281 13.484375 -4 C 11.765625 -2.882812 10.015625 -1.675781 8.234375 -0.375 C 9.273438 0.175781 9.988281 0.800781 10.375 1.5 C 10.769531 2.195312 10.96875 3.046875 10.96875 4.046875 C 10.96875 4.828125 10.695312 5.734375 10.15625 6.765625 C 9.613281 7.796875 8.882812 8.863281 7.96875 9.96875 C 7.050781 11.070312 6.023438 12.132812 4.890625 13.15625 C 3.765625 14.1875 2.597656 15.113281 1.390625 15.9375 C 0.179688 16.769531 -0.984375 17.429688 -2.109375 17.921875 C -3.242188 18.421875 -4.253906 18.671875 -5.140625 18.671875 C -6.003906 18.671875 -6.695312 18.476562 -7.21875 18.09375 C -7.738281 17.71875 -8.113281 17.253906 -8.34375 16.703125 C -8.570312 16.160156 -8.6875 15.648438 -8.6875 15.171875 C -8.6875 14.328125 -8.3125 13.335938 -7.5625 12.203125 C -6.8125 11.078125 -5.78125 9.859375 -4.46875 8.546875 C -3.164062 7.242188 -1.6875 5.894531 -0.03125 4.5 C 1.613281 3.101562 3.351562 1.742188 5.1875 0.421875 C 5.007812 0.367188 4.8125 0.316406 4.59375 0.265625 C 4.375 0.210938 4.164062 0.160156 3.96875 0.109375 C 3.332031 -0.0859375 2.65625 -0.394531 1.9375 -0.8125 C 1.226562 -1.238281 0.625 -1.75 0.125 -2.34375 C -0.363281 -2.9375 -0.609375 -3.578125 -0.609375 -4.265625 C -0.609375 -5.253906 -0.390625 -6.195312 0.046875 -7.09375 C 0.492188 -8 1.0625 -8.847656 1.75 -9.640625 C 2.4375 -10.429688 3.128906 -11.132812 3.828125 -11.75 C 4.523438 -12.375 5.128906 -12.878906 5.640625 -13.265625 C 6.097656 -13.566406 6.335938 -13.894531 6.359375 -14.25 C 6.390625 -14.550781 6.679688 -14.832031 7.234375 -15.09375 C 8.097656 -15.46875 8.984375 -15.863281 9.890625 -16.28125 C 10.796875 -16.707031 11.460938 -16.921875 11.890625 -16.921875 C 12.242188 -16.921875 12.539062 -16.757812 12.78125 -16.4375 C 13.019531 -16.125 13.148438 -15.796875 13.171875 -15.453125 C 13.203125 -15.109375 13.054688 -14.875 12.734375 -14.75 C 12.015625 -14.5 11.15625 -14.0625 10.15625 -13.4375 C 9.15625 -12.8125 8.117188 -12.078125 7.046875 -11.234375 C 5.984375 -10.398438 4.988281 -9.523438 4.0625 -8.609375 C 3.132812 -7.691406 2.378906 -6.804688 1.796875 -5.953125 C 1.210938 -5.109375 0.921875 -4.359375 0.921875 -3.703125 C 0.921875 -3.265625 1.160156 -2.910156 1.640625 -2.640625 C 2.117188 -2.378906 2.710938 -2.164062 3.421875 -2 C 4.140625 -1.832031 4.851562 -1.632812 5.5625 -1.40625 C 5.84375 -1.332031 6.101562 -1.25 6.34375 -1.15625 C 6.582031 -1.070312 6.816406 -0.976562 7.046875 -0.875 C 8.953125 -2.21875 10.828125 -3.460938 12.671875 -4.609375 C 14.515625 -5.753906 16.222656 -6.738281 17.796875 -7.5625 C 19.367188 -8.382812 20.703125 -8.976562 21.796875 -9.34375 Z M 9.109375 2.09375 C 9.109375 1.6875 8.882812 1.394531 8.4375 1.21875 C 8 1.039062 7.421875 0.890625 6.703125 0.765625 C 4.878906 2.160156 3.113281 3.585938 1.40625 5.046875 C -0.289062 6.503906 -1.804688 7.925781 -3.140625 9.3125 C -4.472656 10.695312 -5.523438 11.96875 -6.296875 13.125 C -7.078125 14.28125 -7.46875 15.253906 -7.46875 16.046875 C -7.46875 16.398438 -7.328125 16.734375 -7.046875 17.046875 C -6.765625 17.367188 -6.332031 17.492188 -5.75 17.421875 C -4.757812 17.285156 -3.710938 16.921875 -2.609375 16.328125 C -1.503906 15.734375 -0.394531 14.972656 0.71875 14.046875 C 1.84375 13.117188 2.90625 12.101562 3.90625 11 C 4.90625 9.894531 5.789062 8.785156 6.5625 7.671875 C 7.34375 6.566406 7.960938 5.523438 8.421875 4.546875 C 8.878906 3.578125 9.109375 2.757812 9.109375 2.09375 Z M 9.109375 2.09375 "/></g></g></g><g fill="#f4f1ed" fill-opacity="1"><g transform="translate(24.161022, 171.922839)"><g><path d="M 29.609375 -39.75 C 30.804688 -39.75 31.816406 -39.519531 32.640625 -39.0625 C 33.460938 -38.601562 34.128906 -38.003906 34.640625 -37.265625 C 35.148438 -36.535156 35.519531 -35.738281 35.75 -34.875 C 35.976562 -34.007812 36.09375 -33.171875 36.09375 -32.359375 C 36.09375 -30.679688 35.832031 -28.769531 35.3125 -26.625 C 34.789062 -24.476562 34.019531 -22.25 33 -19.9375 C 31.988281 -17.625 30.757812 -15.382812 29.3125 -13.21875 C 27.863281 -11.0625 26.207031 -9.101562 24.34375 -7.34375 C 22.488281 -5.59375 20.457031 -4.203125 18.25 -3.171875 C 16.039062 -2.148438 13.664062 -1.640625 11.125 -1.640625 C 10.363281 -1.640625 9.617188 -1.707031 8.890625 -1.84375 C 8.171875 -1.988281 7.457031 -2.1875 6.75 -2.4375 C 6.363281 -1.289062 6.007812 -0.15625 5.6875 0.96875 C 5.375 2.101562 5.078125 3.203125 4.796875 4.265625 C 4.671875 4.796875 4.53125 5.492188 4.375 6.359375 C 4.226562 7.222656 4.085938 8.160156 3.953125 9.171875 C 3.828125 10.191406 3.734375 11.1875 3.671875 12.15625 C 3.609375 13.125 3.578125 13.960938 3.578125 14.671875 C 3.578125 14.953125 3.429688 15.046875 3.140625 14.953125 C 2.847656 14.867188 2.515625 14.6875 2.140625 14.40625 C 1.773438 14.125 1.445312 13.816406 1.15625 13.484375 C 0.863281 13.160156 0.71875 12.882812 0.71875 12.65625 C 0.695312 10.0625 0.863281 7.269531 1.21875 4.28125 C 1.570312 1.300781 2.066406 -1.722656 2.703125 -4.796875 C 1.484375 -5.765625 0.46875 -6.882812 -0.34375 -8.15625 C -1.15625 -9.425781 -1.664062 -10.695312 -1.875 -11.96875 C -1.914062 -12.269531 -1.832031 -12.394531 -1.625 -12.34375 C -1.425781 -12.289062 -1.175781 -12.128906 -0.875 -11.859375 C -0.570312 -11.597656 -0.304688 -11.296875 -0.078125 -10.953125 C 0.148438 -10.609375 0.265625 -10.296875 0.265625 -10.015625 C 0.265625 -9.460938 0.410156 -8.90625 0.703125 -8.34375 C 0.992188 -7.78125 1.367188 -7.285156 1.828125 -6.859375 C 1.953125 -6.753906 2.101562 -6.597656 2.28125 -6.390625 C 2.457031 -6.191406 2.675781 -5.976562 2.9375 -5.75 C 3.675781 -9.15625 4.519531 -12.519531 5.46875 -15.84375 C 6.414062 -19.175781 7.414062 -22.332031 8.46875 -25.3125 C 9.53125 -28.300781 10.554688 -30.984375 11.546875 -33.359375 C 12.535156 -35.734375 13.441406 -37.671875 14.265625 -39.171875 C 15.097656 -40.671875 15.753906 -41.597656 16.234375 -41.953125 C 16.410156 -42.085938 16.726562 -42.039062 17.1875 -41.8125 C 17.644531 -41.582031 18.109375 -41.28125 18.578125 -40.90625 C 19.046875 -40.539062 19.410156 -40.195312 19.671875 -39.875 C 19.941406 -39.5625 19.960938 -39.367188 19.734375 -39.296875 C 19.253906 -39.117188 18.753906 -38.859375 18.234375 -38.515625 C 17.710938 -38.171875 17.171875 -37.476562 16.609375 -36.4375 C 15.210938 -33.8125 13.8125 -30.882812 12.40625 -27.65625 C 11 -24.4375 9.675781 -20.867188 8.4375 -16.953125 C 7.207031 -13.046875 6.160156 -8.742188 5.296875 -4.046875 C 5.421875 -3.992188 5.546875 -3.925781 5.671875 -3.84375 C 5.804688 -3.769531 5.945312 -3.707031 6.09375 -3.65625 C 7.007812 -6.25 8.019531 -8.9375 9.125 -11.71875 C 10.226562 -14.5 11.414062 -17.234375 12.6875 -19.921875 C 13.957031 -22.617188 15.285156 -25.160156 16.671875 -27.546875 C 18.054688 -29.941406 19.472656 -32.050781 20.921875 -33.875 C 22.367188 -35.707031 23.820312 -37.144531 25.28125 -38.1875 C 26.75 -39.226562 28.191406 -39.75 29.609375 -39.75 Z M 9.6875 -2.96875 C 11.6875 -2.96875 13.609375 -3.367188 15.453125 -4.171875 C 17.296875 -4.972656 19.035156 -6.066406 20.671875 -7.453125 C 22.304688 -8.835938 23.816406 -10.414062 25.203125 -12.1875 C 26.585938 -13.96875 27.828125 -15.847656 28.921875 -17.828125 C 30.015625 -19.816406 30.945312 -21.800781 31.71875 -23.78125 C 32.5 -25.757812 33.09375 -27.648438 33.5 -29.453125 C 33.90625 -31.265625 34.109375 -32.867188 34.109375 -34.265625 C 34.109375 -35.378906 33.859375 -36.316406 33.359375 -37.078125 C 32.867188 -37.835938 32.050781 -38.21875 30.90625 -38.21875 C 29.53125 -38.21875 28.117188 -37.738281 26.671875 -36.78125 C 25.222656 -35.832031 23.757812 -34.507812 22.28125 -32.8125 C 20.8125 -31.113281 19.363281 -29.144531 17.9375 -26.90625 C 16.519531 -24.664062 15.148438 -22.242188 13.828125 -19.640625 C 12.515625 -17.035156 11.285156 -14.347656 10.140625 -11.578125 C 8.992188 -8.816406 7.960938 -6.078125 7.046875 -3.359375 C 7.429688 -3.253906 7.84375 -3.160156 8.28125 -3.078125 C 8.726562 -3.003906 9.195312 -2.96875 9.6875 -2.96875 Z M 4.453125 1.25 C 4.835938 -0.0390625 5.285156 -1.410156 5.796875 -2.859375 C 5.691406 -2.910156 5.582031 -2.96875 5.46875 -3.03125 C 5.351562 -3.09375 5.242188 -3.148438 5.140625 -3.203125 C 4.890625 -1.753906 4.660156 -0.269531 4.453125 1.25 Z M 4.453125 1.25 "/></g></g></g><g fill="#f4f1ed" fill-opacity="1"><g transform="translate(52.73432, 171.922839)"><g><path d="M 2.4375 2.171875 C 2.28125 2.554688 2.050781 2.679688 1.75 2.546875 C 1.445312 2.421875 1.140625 2.160156 0.828125 1.765625 C 0.523438 1.378906 0.285156 0.945312 0.109375 0.46875 C -0.0664062 0 -0.101562 -0.382812 0 -0.6875 C 0.0703125 -0.882812 0.234375 -1.390625 0.484375 -2.203125 C 0.742188 -3.023438 1.054688 -4.007812 1.421875 -5.15625 C 1.796875 -6.3125 2.175781 -7.550781 2.5625 -8.875 C 2.957031 -10.195312 3.328125 -11.476562 3.671875 -12.71875 C 4.015625 -13.96875 4.296875 -15.082031 4.515625 -16.0625 C 4.734375 -17.039062 4.84375 -17.757812 4.84375 -18.21875 C 4.84375 -18.445312 4.972656 -18.515625 5.234375 -18.421875 C 5.503906 -18.335938 5.8125 -18.148438 6.15625 -17.859375 C 6.5 -17.566406 6.785156 -17.25 7.015625 -16.90625 C 7.242188 -16.5625 7.316406 -16.25 7.234375 -15.96875 C 7.191406 -15.789062 7.03125 -15.300781 6.75 -14.5 C 6.46875 -13.695312 6.128906 -12.722656 5.734375 -11.578125 C 5.335938 -10.441406 4.9375 -9.273438 4.53125 -8.078125 C 4.125 -6.878906 3.757812 -5.796875 3.4375 -4.828125 C 3.125 -3.867188 2.914062 -3.140625 2.8125 -2.640625 C 2.71875 -2.148438 2.769531 -2.054688 2.96875 -2.359375 C 3.226562 -2.710938 3.632812 -3.296875 4.1875 -4.109375 C 4.75 -4.921875 5.390625 -5.820312 6.109375 -6.8125 C 6.835938 -7.8125 7.585938 -8.765625 8.359375 -9.671875 C 9.140625 -10.585938 9.882812 -11.34375 10.59375 -11.9375 C 11.300781 -12.539062 11.898438 -12.832031 12.390625 -12.8125 C 12.921875 -12.8125 13.335938 -12.539062 13.640625 -12 C 13.941406 -11.46875 14.1875 -10.863281 14.375 -10.1875 C 14.570312 -9.519531 14.757812 -8.941406 14.9375 -8.453125 C 15.144531 -7.972656 15.363281 -7.722656 15.59375 -7.703125 C 15.96875 -7.648438 16.453125 -7.75 17.046875 -8 C 17.648438 -8.257812 18.289062 -8.597656 18.96875 -9.015625 C 19.65625 -9.429688 20.316406 -9.867188 20.953125 -10.328125 C 21.585938 -10.785156 22.140625 -11.203125 22.609375 -11.578125 C 23.085938 -11.960938 23.398438 -12.21875 23.546875 -12.34375 C 23.953125 -12.695312 24.222656 -12.738281 24.359375 -12.46875 C 24.503906 -12.207031 24.398438 -11.925781 24.046875 -11.625 C 23.890625 -11.5 23.59375 -11.234375 23.15625 -10.828125 C 22.726562 -10.421875 22.222656 -9.957031 21.640625 -9.4375 C 21.054688 -8.914062 20.453125 -8.398438 19.828125 -7.890625 C 19.210938 -7.378906 18.632812 -6.957031 18.09375 -6.625 C 17.5625 -6.300781 17.132812 -6.125 16.8125 -6.09375 C 15.894531 -6.070312 15.15625 -6.359375 14.59375 -6.953125 C 14.03125 -7.546875 13.613281 -8.1875 13.34375 -8.875 C 13.113281 -9.457031 12.925781 -9.960938 12.78125 -10.390625 C 12.644531 -10.828125 12.4375 -11.035156 12.15625 -11.015625 C 11.675781 -10.960938 11.125 -10.644531 10.5 -10.0625 C 9.875 -9.476562 9.210938 -8.726562 8.515625 -7.8125 C 7.816406 -6.894531 7.128906 -5.914062 6.453125 -4.875 C 5.785156 -3.832031 5.164062 -2.816406 4.59375 -1.828125 C 4.019531 -0.835938 3.539062 0.0078125 3.15625 0.71875 C 2.78125 1.4375 2.539062 1.921875 2.4375 2.171875 Z M 2.4375 2.171875 "/></g></g></g><g fill="#f4f1ed" fill-opacity="1"><g transform="translate(71.630804, 171.922839)"><g><path d="M 21 -11.921875 C 21.070312 -12.054688 21.207031 -12.101562 21.40625 -12.0625 C 21.613281 -12.019531 21.785156 -11.925781 21.921875 -11.78125 C 22.066406 -11.644531 22.078125 -11.503906 21.953125 -11.359375 C 21.492188 -10.722656 20.859375 -9.984375 20.046875 -9.140625 C 19.234375 -8.304688 18.273438 -7.46875 17.171875 -6.625 C 16.066406 -5.789062 14.847656 -5.070312 13.515625 -4.46875 C 12.179688 -3.875 10.765625 -3.503906 9.265625 -3.359375 C 8.648438 -2.234375 8 -1.207031 7.3125 -0.28125 C 6.625 0.644531 5.953125 1.375 5.296875 1.90625 C 4.640625 2.4375 4.03125 2.703125 3.46875 2.703125 C 2.90625 2.703125 2.382812 2.515625 1.90625 2.140625 C 1.425781 1.773438 1.039062 1.328125 0.75 0.796875 C 0.457031 0.265625 0.3125 -0.253906 0.3125 -0.765625 C 0.332031 -1.503906 0.414062 -2.257812 0.5625 -3.03125 C 0.71875 -3.800781 0.925781 -4.566406 1.1875 -5.328125 C 0.5 -5.890625 0.00390625 -6.519531 -0.296875 -7.21875 C -0.609375 -7.914062 -0.765625 -8.625 -0.765625 -9.34375 C -0.765625 -10.632812 -0.476562 -11.804688 0.09375 -12.859375 C 0.664062 -13.910156 1.410156 -14.816406 2.328125 -15.578125 C 3.242188 -16.347656 4.234375 -16.9375 5.296875 -17.34375 C 6.359375 -17.75 7.398438 -17.953125 8.421875 -17.953125 C 9.535156 -17.953125 10.5 -17.585938 11.3125 -16.859375 C 12.125 -16.140625 12.53125 -15.195312 12.53125 -14.03125 C 12.53125 -12.65625 12.265625 -11.085938 11.734375 -9.328125 C 11.203125 -7.578125 10.53125 -5.878906 9.71875 -4.234375 C 10.957031 -4.410156 12.269531 -4.800781 13.65625 -5.40625 C 15.039062 -6.019531 16.375 -6.863281 17.65625 -7.9375 C 18.945312 -9.019531 20.0625 -10.347656 21 -11.921875 Z M 1.328125 -8.453125 C 1.328125 -7.847656 1.457031 -7.289062 1.71875 -6.78125 C 2.195312 -7.894531 2.707031 -8.910156 3.25 -9.828125 C 3.800781 -10.742188 4.332031 -11.472656 4.84375 -12.015625 C 5.351562 -12.566406 5.742188 -12.84375 6.015625 -12.84375 C 6.703125 -12.84375 7.195312 -12.625 7.5 -12.1875 C 7.8125 -11.757812 7.878906 -11.394531 7.703125 -11.09375 C 7.210938 -10.195312 6.691406 -9.175781 6.140625 -8.03125 C 5.597656 -6.894531 5.101562 -5.769531 4.65625 -4.65625 C 5.15625 -4.5 5.71875 -4.375 6.34375 -4.28125 C 6.96875 -4.195312 7.660156 -4.15625 8.421875 -4.15625 L 8.65625 -4.15625 C 9.46875 -5.726562 10.144531 -7.425781 10.6875 -9.25 C 11.238281 -11.082031 11.515625 -12.835938 11.515625 -14.515625 C 11.515625 -15.304688 11.300781 -15.929688 10.875 -16.390625 C 10.457031 -16.847656 9.921875 -17.078125 9.265625 -17.078125 C 8.367188 -17.078125 7.519531 -16.847656 6.71875 -16.390625 C 5.925781 -15.929688 5.195312 -15.34375 4.53125 -14.625 C 3.875 -13.914062 3.300781 -13.160156 2.8125 -12.359375 C 2.332031 -11.566406 1.960938 -10.816406 1.703125 -10.109375 C 1.453125 -9.410156 1.328125 -8.859375 1.328125 -8.453125 Z M 3.46875 1.75 C 4.070312 1.75 4.8125 1.269531 5.6875 0.3125 C 6.570312 -0.632812 7.421875 -1.84375 8.234375 -3.3125 L 8.15625 -3.3125 C 6.65625 -3.3125 5.375 -3.460938 4.3125 -3.765625 C 3.925781 -2.773438 3.601562 -1.859375 3.34375 -1.015625 C 3.09375 -0.179688 2.96875 0.484375 2.96875 0.984375 C 2.96875 1.492188 3.132812 1.75 3.46875 1.75 Z M 3.46875 1.75 "/></g></g></g><g fill="#f4f1ed" fill-opacity="1"><g transform="translate(88.355713, 171.922839)"><g><path d="M 26.375 -10.90625 C 26.5 -11.050781 26.734375 -11.101562 27.078125 -11.0625 C 27.421875 -11.03125 27.695312 -10.925781 27.90625 -10.75 C 28.125 -10.570312 28.09375 -10.328125 27.8125 -10.015625 C 27.613281 -9.796875 27.226562 -9.429688 26.65625 -8.921875 C 26.082031 -8.410156 25.40625 -7.875 24.625 -7.3125 C 23.851562 -6.757812 23.0625 -6.285156 22.25 -5.890625 C 21.4375 -5.492188 20.6875 -5.296875 20 -5.296875 C 19.238281 -5.296875 18.519531 -5.566406 17.84375 -6.109375 C 17.175781 -6.660156 16.601562 -7.304688 16.125 -8.046875 C 15.40625 -6.847656 14.585938 -5.535156 13.671875 -4.109375 C 12.765625 -2.691406 11.816406 -1.285156 10.828125 0.109375 C 9.835938 1.503906 8.867188 2.773438 7.921875 3.921875 C 6.984375 5.066406 6.132812 5.988281 5.375 6.6875 C 4.613281 7.382812 3.988281 7.734375 3.5 7.734375 C 3.039062 7.734375 2.53125 7.570312 1.96875 7.25 C 1.414062 6.9375 0.9375 6.390625 0.53125 5.609375 C 0.125 4.835938 -0.078125 3.753906 -0.078125 2.359375 C -0.078125 1.523438 0.0625 0.476562 0.34375 -0.78125 C 0.625 -2.039062 0.96875 -3.351562 1.375 -4.71875 C 1.78125 -6.09375 2.175781 -7.382812 2.5625 -8.59375 C 2.957031 -9.800781 3.296875 -10.789062 3.578125 -11.5625 C 3.859375 -12.34375 4 -12.757812 4 -12.8125 C 4 -12.9375 4.007812 -13.101562 4.03125 -13.3125 C 4.0625 -13.53125 4.015625 -13.882812 3.890625 -14.375 C 3.835938 -14.59375 3.96875 -14.691406 4.28125 -14.671875 C 4.601562 -14.648438 4.992188 -14.523438 5.453125 -14.296875 C 5.910156 -14.066406 6.316406 -13.753906 6.671875 -13.359375 C 7.023438 -12.960938 7.203125 -12.507812 7.203125 -12 C 7.203125 -11.59375 7.023438 -10.96875 6.671875 -10.125 C 6.316406 -9.289062 5.882812 -8.316406 5.375 -7.203125 C 4.863281 -6.085938 4.347656 -4.898438 3.828125 -3.640625 C 3.304688 -2.378906 2.867188 -1.113281 2.515625 0.15625 C 2.160156 1.425781 1.984375 2.628906 1.984375 3.765625 C 1.984375 5.210938 2.398438 5.898438 3.234375 5.828125 C 3.867188 5.753906 4.582031 5.390625 5.375 4.734375 C 6.164062 4.085938 6.988281 3.238281 7.84375 2.1875 C 8.707031 1.132812 9.582031 -0.0351562 10.46875 -1.328125 C 11.363281 -2.628906 12.226562 -3.972656 13.0625 -5.359375 C 13.90625 -6.742188 14.695312 -8.082031 15.4375 -9.375 C 15.28125 -9.757812 15.15625 -10.128906 15.0625 -10.484375 C 14.976562 -10.835938 14.9375 -11.164062 14.9375 -11.46875 C 14.9375 -12.132812 15.0625 -12.734375 15.3125 -13.265625 C 15.570312 -13.796875 15.90625 -14.0625 16.3125 -14.0625 C 16.738281 -14.0625 17.195312 -13.929688 17.6875 -13.671875 C 18.1875 -13.421875 18.4375 -13.054688 18.4375 -12.578125 C 18.4375 -12.398438 18.296875 -12.03125 18.015625 -11.46875 C 17.742188 -10.90625 17.363281 -10.195312 16.875 -9.34375 C 17.082031 -8.625 17.40625 -7.984375 17.84375 -7.421875 C 18.289062 -6.867188 18.921875 -6.59375 19.734375 -6.59375 C 20.546875 -6.59375 21.328125 -6.789062 22.078125 -7.1875 C 22.828125 -7.582031 23.503906 -8.046875 24.109375 -8.578125 C 24.722656 -9.109375 25.226562 -9.601562 25.625 -10.0625 C 26.019531 -10.519531 26.269531 -10.800781 26.375 -10.90625 Z M 26.375 -10.90625 "/></g></g></g><g fill="#f4f1ed" fill-opacity="1"><g transform="translate(110.414302, 171.922839)"><g><path d="M 21.375 -11.46875 C 21.601562 -11.75 21.789062 -11.832031 21.9375 -11.71875 C 22.09375 -11.601562 22.179688 -11.410156 22.203125 -11.140625 C 22.234375 -10.878906 22.132812 -10.632812 21.90625 -10.40625 C 21.53125 -10 20.957031 -9.394531 20.1875 -8.59375 C 19.425781 -7.789062 18.546875 -6.878906 17.546875 -5.859375 C 16.546875 -4.847656 15.492188 -3.820312 14.390625 -2.78125 C 13.285156 -1.738281 12.1875 -0.78125 11.09375 0.09375 C 10 0.96875 8.988281 1.675781 8.0625 2.21875 C 7.132812 2.769531 6.335938 3.046875 5.671875 3.046875 C 4.222656 3.046875 3.019531 2.609375 2.0625 1.734375 C 1.113281 0.859375 0.640625 -0.46875 0.640625 -2.25 C 0.640625 -3.394531 0.820312 -4.578125 1.1875 -5.796875 C 1.5625 -7.015625 2.0625 -8.1875 2.6875 -9.3125 C 3.3125 -10.445312 4.015625 -11.46875 4.796875 -12.375 C 5.585938 -13.289062 6.414062 -14.015625 7.28125 -14.546875 C 8.144531 -15.085938 8.992188 -15.359375 9.828125 -15.359375 C 10.742188 -15.359375 11.441406 -15.144531 11.921875 -14.71875 C 12.410156 -14.300781 12.65625 -13.753906 12.65625 -13.078125 C 12.65625 -12.484375 12.453125 -11.832031 12.046875 -11.125 C 11.640625 -10.414062 11.125 -9.8125 10.5 -9.3125 C 9.875 -8.820312 9.207031 -8.578125 8.5 -8.578125 C 7.863281 -8.578125 7.367188 -8.734375 7.015625 -9.046875 C 6.660156 -9.367188 6.328125 -9.71875 6.015625 -10.09375 C 5.148438 -8.800781 4.40625 -7.320312 3.78125 -5.65625 C 3.164062 -3.988281 2.859375 -2.332031 2.859375 -0.6875 C 2.859375 0.175781 3.0625 0.875 3.46875 1.40625 C 3.875 1.9375 4.472656 2.203125 5.265625 2.203125 C 5.941406 2.179688 6.789062 1.863281 7.8125 1.25 C 8.832031 0.644531 9.921875 -0.132812 11.078125 -1.09375 C 12.234375 -2.0625 13.378906 -3.101562 14.515625 -4.21875 C 15.660156 -5.34375 16.722656 -6.421875 17.703125 -7.453125 C 18.679688 -8.484375 19.5 -9.363281 20.15625 -10.09375 C 20.820312 -10.832031 21.226562 -11.289062 21.375 -11.46875 Z M 10.96875 -14.25 C 10.332031 -14.25 9.59375 -13.90625 8.75 -13.21875 C 7.914062 -12.53125 7.09375 -11.628906 6.28125 -10.515625 C 6.488281 -10.265625 6.722656 -10.0625 6.984375 -9.90625 C 7.253906 -9.757812 7.503906 -9.6875 7.734375 -9.6875 C 8.066406 -9.6875 8.523438 -9.867188 9.109375 -10.234375 C 9.691406 -10.597656 10.222656 -11.09375 10.703125 -11.71875 C 11.191406 -12.34375 11.4375 -13.019531 11.4375 -13.75 C 11.4375 -14.082031 11.28125 -14.25 10.96875 -14.25 Z M 10.96875 -14.25 "/></g></g></g><g fill="#f4f1ed" fill-opacity="1"><g transform="translate(127.748769, 171.922839)"><g><path d="M 2.4375 2.171875 C 2.28125 2.554688 2.050781 2.679688 1.75 2.546875 C 1.445312 2.421875 1.140625 2.160156 0.828125 1.765625 C 0.523438 1.378906 0.285156 0.945312 0.109375 0.46875 C -0.0664062 0 -0.101562 -0.382812 0 -0.6875 C 0.0703125 -0.882812 0.234375 -1.390625 0.484375 -2.203125 C 0.742188 -3.023438 1.054688 -4.007812 1.421875 -5.15625 C 1.796875 -6.3125 2.175781 -7.550781 2.5625 -8.875 C 2.957031 -10.195312 3.328125 -11.476562 3.671875 -12.71875 C 4.015625 -13.96875 4.296875 -15.082031 4.515625 -16.0625 C 4.734375 -17.039062 4.84375 -17.757812 4.84375 -18.21875 C 4.84375 -18.445312 4.972656 -18.515625 5.234375 -18.421875 C 5.503906 -18.335938 5.8125 -18.148438 6.15625 -17.859375 C 6.5 -17.566406 6.785156 -17.25 7.015625 -16.90625 C 7.242188 -16.5625 7.316406 -16.25 7.234375 -15.96875 C 7.191406 -15.789062 7.03125 -15.300781 6.75 -14.5 C 6.46875 -13.695312 6.128906 -12.722656 5.734375 -11.578125 C 5.335938 -10.441406 4.9375 -9.273438 4.53125 -8.078125 C 4.125 -6.878906 3.757812 -5.796875 3.4375 -4.828125 C 3.125 -3.867188 2.914062 -3.140625 2.8125 -2.640625 C 2.71875 -2.148438 2.769531 -2.054688 2.96875 -2.359375 C 3.226562 -2.710938 3.632812 -3.296875 4.1875 -4.109375 C 4.75 -4.921875 5.390625 -5.820312 6.109375 -6.8125 C 6.835938 -7.8125 7.585938 -8.765625 8.359375 -9.671875 C 9.140625 -10.585938 9.882812 -11.34375 10.59375 -11.9375 C 11.300781 -12.539062 11.898438 -12.832031 12.390625 -12.8125 C 12.921875 -12.8125 13.335938 -12.539062 13.640625 -12 C 13.941406 -11.46875 14.1875 -10.863281 14.375 -10.1875 C 14.570312 -9.519531 14.757812 -8.941406 14.9375 -8.453125 C 15.144531 -7.972656 15.363281 -7.722656 15.59375 -7.703125 C 15.96875 -7.648438 16.453125 -7.75 17.046875 -8 C 17.648438 -8.257812 18.289062 -8.597656 18.96875 -9.015625 C 19.65625 -9.429688 20.316406 -9.867188 20.953125 -10.328125 C 21.585938 -10.785156 22.140625 -11.203125 22.609375 -11.578125 C 23.085938 -11.960938 23.398438 -12.21875 23.546875 -12.34375 C 23.953125 -12.695312 24.222656 -12.738281 24.359375 -12.46875 C 24.503906 -12.207031 24.398438 -11.925781 24.046875 -11.625 C 23.890625 -11.5 23.59375 -11.234375 23.15625 -10.828125 C 22.726562 -10.421875 22.222656 -9.957031 21.640625 -9.4375 C 21.054688 -8.914062 20.453125 -8.398438 19.828125 -7.890625 C 19.210938 -7.378906 18.632812 -6.957031 18.09375 -6.625 C 17.5625 -6.300781 17.132812 -6.125 16.8125 -6.09375 C 15.894531 -6.070312 15.15625 -6.359375 14.59375 -6.953125 C 14.03125 -7.546875 13.613281 -8.1875 13.34375 -8.875 C 13.113281 -9.457031 12.925781 -9.960938 12.78125 -10.390625 C 12.644531 -10.828125 12.4375 -11.035156 12.15625 -11.015625 C 11.675781 -10.960938 11.125 -10.644531 10.5 -10.0625 C 9.875 -9.476562 9.210938 -8.726562 8.515625 -7.8125 C 7.816406 -6.894531 7.128906 -5.914062 6.453125 -4.875 C 5.785156 -3.832031 5.164062 -2.816406 4.59375 -1.828125 C 4.019531 -0.835938 3.539062 0.0078125 3.15625 0.71875 C 2.78125 1.4375 2.539062 1.921875 2.4375 2.171875 Z M 2.4375 2.171875 "/></g></g></g><g fill="#f4f1ed" fill-opacity="1"><g transform="translate(146.645253, 171.922839)"><g><path d="M 28.65625 -11.015625 C 28.78125 -11.066406 28.929688 -11.015625 29.109375 -10.859375 C 29.285156 -10.703125 29.398438 -10.53125 29.453125 -10.34375 C 29.503906 -10.15625 29.390625 -10.007812 29.109375 -9.90625 C 27.835938 -9.476562 26.257812 -8.734375 24.375 -7.671875 C 22.5 -6.617188 20.5625 -5.421875 18.5625 -4.078125 C 17.769531 -2.148438 16.851562 -0.289062 15.8125 1.5 C 14.769531 3.289062 13.707031 4.894531 12.625 6.3125 C 11.550781 7.738281 10.550781 8.867188 9.625 9.703125 C 8.695312 10.546875 7.96875 10.96875 7.4375 10.96875 C 7.207031 10.96875 6.832031 10.890625 6.3125 10.734375 C 5.789062 10.585938 5.3125 10.335938 4.875 9.984375 C 4.445312 9.628906 4.234375 9.160156 4.234375 8.578125 C 4.234375 7.816406 4.550781 6.945312 5.1875 5.96875 C 5.820312 4.988281 6.691406 3.9375 7.796875 2.8125 C 8.898438 1.695312 10.160156 0.5625 11.578125 -0.59375 C 13.003906 -1.75 14.492188 -2.875 16.046875 -3.96875 C 16.859375 -5.875 17.523438 -7.703125 18.046875 -9.453125 C 18.566406 -11.203125 18.828125 -12.660156 18.828125 -13.828125 C 18.828125 -14.035156 18.769531 -14.195312 18.65625 -14.3125 C 18.539062 -14.425781 18.304688 -14.484375 17.953125 -14.484375 C 17.210938 -14.484375 16.414062 -14.140625 15.5625 -13.453125 C 14.71875 -12.765625 13.847656 -11.847656 12.953125 -10.703125 C 12.066406 -9.566406 11.1875 -8.285156 10.3125 -6.859375 C 9.4375 -5.429688 8.597656 -3.960938 7.796875 -2.453125 C 6.992188 -0.941406 6.265625 0.507812 5.609375 1.90625 C 4.785156 3.632812 4.03125 5.34375 3.34375 7.03125 C 2.664062 8.71875 2.066406 10.253906 1.546875 11.640625 C 1.023438 13.023438 0.578125 14.128906 0.203125 14.953125 C -0.160156 15.785156 -0.429688 16.203125 -0.609375 16.203125 C -0.835938 16.203125 -1.128906 16.160156 -1.484375 16.078125 C -1.835938 16.003906 -2.144531 15.851562 -2.40625 15.625 C -2.675781 15.394531 -2.800781 15.039062 -2.78125 14.5625 C -2.675781 13.03125 -2.398438 11.207031 -1.953125 9.09375 C -1.515625 6.988281 -0.957031 4.722656 -0.28125 2.296875 C 0.382812 -0.117188 1.113281 -2.582031 1.90625 -5.09375 C 2.695312 -7.613281 3.484375 -10.039062 4.265625 -12.375 C 5.054688 -14.71875 5.789062 -16.851562 6.46875 -18.78125 C 7.15625 -20.71875 7.726562 -22.3125 8.1875 -23.5625 C 8.644531 -24.820312 8.925781 -25.617188 9.03125 -25.953125 C 9.1875 -26.410156 9.4375 -27.078125 9.78125 -27.953125 C 10.125 -28.828125 10.507812 -29.78125 10.9375 -30.8125 C 11.363281 -31.84375 11.789062 -32.828125 12.21875 -33.765625 C 12.65625 -34.703125 13.054688 -35.46875 13.421875 -36.0625 C 13.796875 -36.664062 14.070312 -36.976562 14.25 -37 C 14.738281 -37.050781 15.234375 -36.914062 15.734375 -36.59375 C 16.242188 -36.28125 16.660156 -35.921875 16.984375 -35.515625 C 17.316406 -35.109375 17.445312 -34.765625 17.375 -34.484375 C 17.351562 -34.390625 17.203125 -34.363281 16.921875 -34.40625 C 16.640625 -34.457031 16.359375 -34.382812 16.078125 -34.1875 C 15.523438 -33.78125 15.003906 -33.207031 14.515625 -32.46875 C 14.035156 -31.726562 13.515625 -30.75 12.953125 -29.53125 C 12.828125 -29.25 12.5 -28.460938 11.96875 -27.171875 C 11.4375 -25.878906 10.773438 -24.191406 9.984375 -22.109375 C 9.191406 -20.023438 8.316406 -17.632812 7.359375 -14.9375 C 6.410156 -12.25 5.4375 -9.359375 4.4375 -6.265625 C 3.4375 -3.179688 2.472656 0.0195312 1.546875 3.34375 C 0.617188 6.675781 -0.222656 10.007812 -0.984375 13.34375 C -0.859375 13.113281 -0.597656 12.535156 -0.203125 11.609375 C 0.179688 10.679688 0.675781 9.503906 1.28125 8.078125 C 1.894531 6.648438 2.597656 5.078125 3.390625 3.359375 C 4.179688 1.648438 5.03125 -0.0859375 5.9375 -1.859375 C 6.851562 -3.640625 7.800781 -5.351562 8.78125 -7 C 9.757812 -8.65625 10.75 -10.140625 11.75 -11.453125 C 12.757812 -12.765625 13.753906 -13.804688 14.734375 -14.578125 C 15.710938 -15.347656 16.644531 -15.734375 17.53125 -15.734375 C 18.320312 -15.734375 19.019531 -15.457031 19.625 -14.90625 C 20.238281 -14.363281 20.546875 -13.648438 20.546875 -12.765625 C 20.546875 -11.753906 20.4375 -10.679688 20.21875 -9.546875 C 20 -8.410156 19.703125 -7.273438 19.328125 -6.140625 C 21.046875 -7.253906 22.71875 -8.234375 24.34375 -9.078125 C 25.976562 -9.929688 27.414062 -10.578125 28.65625 -11.015625 Z M 6.78125 9.453125 C 7.46875 9.328125 8.273438 8.742188 9.203125 7.703125 C 10.128906 6.660156 11.09375 5.320312 12.09375 3.6875 C 13.101562 2.0625 14.050781 0.335938 14.9375 -1.484375 C 13.289062 -0.242188 11.773438 1.003906 10.390625 2.265625 C 9.003906 3.523438 7.894531 4.707031 7.0625 5.8125 C 6.238281 6.914062 5.828125 7.863281 5.828125 8.65625 C 5.828125 8.851562 5.898438 9.046875 6.046875 9.234375 C 6.203125 9.429688 6.445312 9.503906 6.78125 9.453125 Z M 6.78125 9.453125 "/></g></g></g><g fill="#f4f1ed" fill-opacity="1"><g transform="translate(171.751666, 171.922839)"><g><path d="M 21.796875 -9.34375 C 21.921875 -9.382812 22.046875 -9.285156 22.171875 -9.046875 C 22.304688 -8.804688 22.304688 -8.660156 22.171875 -8.609375 C 21.109375 -8.253906 19.828125 -7.675781 18.328125 -6.875 C 16.828125 -6.070312 15.210938 -5.113281 13.484375 -4 C 11.765625 -2.882812 10.015625 -1.675781 8.234375 -0.375 C 9.273438 0.175781 9.988281 0.800781 10.375 1.5 C 10.769531 2.195312 10.96875 3.046875 10.96875 4.046875 C 10.96875 4.828125 10.695312 5.734375 10.15625 6.765625 C 9.613281 7.796875 8.882812 8.863281 7.96875 9.96875 C 7.050781 11.070312 6.023438 12.132812 4.890625 13.15625 C 3.765625 14.1875 2.597656 15.113281 1.390625 15.9375 C 0.179688 16.769531 -0.984375 17.429688 -2.109375 17.921875 C -3.242188 18.421875 -4.253906 18.671875 -5.140625 18.671875 C -6.003906 18.671875 -6.695312 18.476562 -7.21875 18.09375 C -7.738281 17.71875 -8.113281 17.253906 -8.34375 16.703125 C -8.570312 16.160156 -8.6875 15.648438 -8.6875 15.171875 C -8.6875 14.328125 -8.3125 13.335938 -7.5625 12.203125 C -6.8125 11.078125 -5.78125 9.859375 -4.46875 8.546875 C -3.164062 7.242188 -1.6875 5.894531 -0.03125 4.5 C 1.613281 3.101562 3.351562 1.742188 5.1875 0.421875 C 5.007812 0.367188 4.8125 0.316406 4.59375 0.265625 C 4.375 0.210938 4.164062 0.160156 3.96875 0.109375 C 3.332031 -0.0859375 2.65625 -0.394531 1.9375 -0.8125 C 1.226562 -1.238281 0.625 -1.75 0.125 -2.34375 C -0.363281 -2.9375 -0.609375 -3.578125 -0.609375 -4.265625 C -0.609375 -5.253906 -0.390625 -6.195312 0.046875 -7.09375 C 0.492188 -8 1.0625 -8.847656 1.75 -9.640625 C 2.4375 -10.429688 3.128906 -11.132812 3.828125 -11.75 C 4.523438 -12.375 5.128906 -12.878906 5.640625 -13.265625 C 6.097656 -13.566406 6.335938 -13.894531 6.359375 -14.25 C 6.390625 -14.550781 6.679688 -14.832031 7.234375 -15.09375 C 8.097656 -15.46875 8.984375 -15.863281 9.890625 -16.28125 C 10.796875 -16.707031 11.460938 -16.921875 11.890625 -16.921875 C 12.242188 -16.921875 12.539062 -16.757812 12.78125 -16.4375 C 13.019531 -16.125 13.148438 -15.796875 13.171875 -15.453125 C 13.203125 -15.109375 13.054688 -14.875 12.734375 -14.75 C 12.015625 -14.5 11.15625 -14.0625 10.15625 -13.4375 C 9.15625 -12.8125 8.117188 -12.078125 7.046875 -11.234375 C 5.984375 -10.398438 4.988281 -9.523438 4.0625 -8.609375 C 3.132812 -7.691406 2.378906 -6.804688 1.796875 -5.953125 C 1.210938 -5.109375 0.921875 -4.359375 0.921875 -3.703125 C 0.921875 -3.265625 1.160156 -2.910156 1.640625 -2.640625 C 2.117188 -2.378906 2.710938 -2.164062 3.421875 -2 C 4.140625 -1.832031 4.851562 -1.632812 5.5625 -1.40625 C 5.84375 -1.332031 6.101562 -1.25 6.34375 -1.15625 C 6.582031 -1.070312 6.816406 -0.976562 7.046875 -0.875 C 8.953125 -2.21875 10.828125 -3.460938 12.671875 -4.609375 C 14.515625 -5.753906 16.222656 -6.738281 17.796875 -7.5625 C 19.367188 -8.382812 20.703125 -8.976562 21.796875 -9.34375 Z M 9.109375 2.09375 C 9.109375 1.6875 8.882812 1.394531 8.4375 1.21875 C 8 1.039062 7.421875 0.890625 6.703125 0.765625 C 4.878906 2.160156 3.113281 3.585938 1.40625 5.046875 C -0.289062 6.503906 -1.804688 7.925781 -3.140625 9.3125 C -4.472656 10.695312 -5.523438 11.96875 -6.296875 13.125 C -7.078125 14.28125 -7.46875 15.253906 -7.46875 16.046875 C -7.46875 16.398438 -7.328125 16.734375 -7.046875 17.046875 C -6.765625 17.367188 -6.332031 17.492188 -5.75 17.421875 C -4.757812 17.285156 -3.710938 16.921875 -2.609375 16.328125 C -1.503906 15.734375 -0.394531 14.972656 0.71875 14.046875 C 1.84375 13.117188 2.90625 12.101562 3.90625 11 C 4.90625 9.894531 5.789062 8.785156 6.5625 7.671875 C 7.34375 6.566406 7.960938 5.523438 8.421875 4.546875 C 8.878906 3.578125 9.109375 2.757812 9.109375 2.09375 Z M 9.109375 2.09375 "/></g></g></g><g transform="matrix(1, 0, 0, 1, 214, 166)"><g clip-path="url(#c16e261ccd)"><g clip-path="url(#a4e521c38e)"><g fill="#f4f1ed" fill-opacity="1"><g transform="translate(0.860555, 7.432077)"><g><path d="M -0.15625 -1.84375 L -0.15625 -2.25 L 4.953125 -2.25 L 4.953125 -1.84375 Z M -0.15625 -1.84375 "/></g></g></g></g><g fill="#f4f1ed" fill-opacity="1"><g transform="translate(6.85775, 7.432077)"><g/></g></g><g fill="#f4f1ed" fill-opacity="1"><g transform="translate(10.145374, 7.432077)"><g><path d="M 1.5 -5.078125 L 1.5 -2.875 L 4.390625 -2.875 L 4.390625 -2.375 L 1.5 -2.375 L 1.5 0 L 0.90625 0 L 0.90625 -5.59375 L 4.75 -5.59375 L 4.75 -5.078125 Z M 1.5 -5.078125 "/></g></g></g><g fill="#f4f1ed" fill-opacity="1"><g transform="translate(16.393465, 7.432077)"><g><path d="M 0.90625 -5.59375 L 1.5 -5.59375 L 1.5 0 L 0.90625 0 Z M 0.90625 -5.59375 "/></g></g></g><g fill="#f4f1ed" fill-opacity="1"><g transform="translate(20.000273, 7.432077)"><g><path d="M 5.578125 -5.59375 L 5.578125 0 L 5.09375 0 L 1.5 -4.53125 L 1.5 0 L 0.90625 0 L 0.90625 -5.59375 L 1.390625 -5.59375 L 5 -1.046875 L 5 -5.59375 Z M 5.578125 -5.59375 "/></g></g></g><g fill="#f4f1ed" fill-opacity="1"><g transform="translate(27.684713, 7.432077)"><g><path d="M 4.421875 -1.5 L 1.296875 -1.5 L 0.625 0 L 0.015625 0 L 2.578125 -5.59375 L 3.15625 -5.59375 L 5.703125 0 L 5.09375 0 Z M 4.203125 -1.96875 L 2.859375 -4.96875 L 1.515625 -1.96875 Z M 4.203125 -1.96875 "/></g></g></g><g fill="#f4f1ed" fill-opacity="1"><g transform="translate(34.603101, 7.432077)"><g><path d="M 5.578125 -5.59375 L 5.578125 0 L 5.09375 0 L 1.5 -4.53125 L 1.5 0 L 0.90625 0 L 0.90625 -5.59375 L 1.390625 -5.59375 L 5 -1.046875 L 5 -5.59375 Z M 5.578125 -5.59375 "/></g></g></g><g fill="#f4f1ed" fill-opacity="1"><g transform="translate(42.287541, 7.432077)"><g><path d="M 3.34375 0.046875 C 2.78125 0.046875 2.273438 -0.0703125 1.828125 -0.3125 C 1.390625 -0.5625 1.046875 -0.898438 0.796875 -1.328125 C 0.546875 -1.765625 0.421875 -2.253906 0.421875 -2.796875 C 0.421875 -3.328125 0.546875 -3.8125 0.796875 -4.25 C 1.046875 -4.6875 1.394531 -5.023438 1.84375 -5.265625 C 2.289062 -5.515625 2.789062 -5.640625 3.34375 -5.640625 C 3.757812 -5.640625 4.140625 -5.566406 4.484375 -5.421875 C 4.835938 -5.285156 5.140625 -5.085938 5.390625 -4.828125 L 5.015625 -4.453125 C 4.578125 -4.890625 4.023438 -5.109375 3.359375 -5.109375 C 2.921875 -5.109375 2.519531 -5.003906 2.15625 -4.796875 C 1.789062 -4.597656 1.503906 -4.320312 1.296875 -3.96875 C 1.097656 -3.625 1 -3.234375 1 -2.796875 C 1 -2.359375 1.097656 -1.960938 1.296875 -1.609375 C 1.503906 -1.253906 1.789062 -0.976562 2.15625 -0.78125 C 2.519531 -0.582031 2.921875 -0.484375 3.359375 -0.484375 C 4.035156 -0.484375 4.585938 -0.707031 5.015625 -1.15625 L 5.390625 -0.78125 C 5.140625 -0.507812 4.835938 -0.300781 4.484375 -0.15625 C 4.128906 -0.0195312 3.75 0.046875 3.34375 0.046875 Z M 3.34375 0.046875 "/></g></g></g><g fill="#f4f1ed" fill-opacity="1"><g transform="translate(49.22189, 7.432077)"><g><path d="M 0.90625 -5.59375 L 1.5 -5.59375 L 1.5 0 L 0.90625 0 Z M 0.90625 -5.59375 "/></g></g></g><g fill="#f4f1ed" fill-opacity="1"><g transform="translate(52.828697, 7.432077)"><g><path d="M 4.421875 -1.5 L 1.296875 -1.5 L 0.625 0 L 0.015625 0 L 2.578125 -5.59375 L 3.15625 -5.59375 L 5.703125 0 L 5.09375 0 Z M 4.203125 -1.96875 L 2.859375 -4.96875 L 1.515625 -1.96875 Z M 4.203125 -1.96875 "/></g></g></g><g fill="#f4f1ed" fill-opacity="1"><g transform="translate(59.747086, 7.432077)"><g><path d="M 0.90625 -5.59375 L 1.5 -5.59375 L 1.5 -0.515625 L 4.625 -0.515625 L 4.625 0 L 0.90625 0 Z M 0.90625 -5.59375 "/></g></g></g><g fill="#f4f1ed" fill-opacity="1"><g transform="translate(65.644072, 7.432077)"><g/></g></g><g fill="#f4f1ed" fill-opacity="1"><g transform="translate(68.931697, 7.432077)"><g><path d="M 2.453125 0.046875 C 2.035156 0.046875 1.632812 -0.015625 1.25 -0.140625 C 0.875 -0.273438 0.582031 -0.453125 0.375 -0.671875 L 0.609375 -1.140625 C 0.804688 -0.929688 1.070312 -0.765625 1.40625 -0.640625 C 1.75 -0.515625 2.097656 -0.453125 2.453125 -0.453125 C 2.953125 -0.453125 3.328125 -0.539062 3.578125 -0.71875 C 3.828125 -0.90625 3.953125 -1.144531 3.953125 -1.4375 C 3.953125 -1.664062 3.882812 -1.847656 3.75 -1.984375 C 3.613281 -2.117188 3.445312 -2.21875 3.25 -2.28125 C 3.050781 -2.351562 2.773438 -2.429688 2.421875 -2.515625 C 2.003906 -2.628906 1.671875 -2.734375 1.421875 -2.828125 C 1.171875 -2.929688 0.957031 -3.082031 0.78125 -3.28125 C 0.601562 -3.476562 0.515625 -3.753906 0.515625 -4.109375 C 0.515625 -4.390625 0.585938 -4.644531 0.734375 -4.875 C 0.878906 -5.101562 1.109375 -5.285156 1.421875 -5.421875 C 1.734375 -5.566406 2.117188 -5.640625 2.578125 -5.640625 C 2.890625 -5.640625 3.195312 -5.59375 3.5 -5.5 C 3.8125 -5.414062 4.078125 -5.296875 4.296875 -5.140625 L 4.109375 -4.671875 C 3.867188 -4.828125 3.613281 -4.941406 3.34375 -5.015625 C 3.082031 -5.097656 2.828125 -5.140625 2.578125 -5.140625 C 2.085938 -5.140625 1.71875 -5.039062 1.46875 -4.84375 C 1.21875 -4.65625 1.09375 -4.414062 1.09375 -4.125 C 1.09375 -3.894531 1.160156 -3.710938 1.296875 -3.578125 C 1.429688 -3.441406 1.597656 -3.335938 1.796875 -3.265625 C 2.003906 -3.191406 2.285156 -3.113281 2.640625 -3.03125 C 3.046875 -2.925781 3.375 -2.828125 3.625 -2.734375 C 3.882812 -2.640625 4.097656 -2.488281 4.265625 -2.28125 C 4.441406 -2.082031 4.53125 -1.816406 4.53125 -1.484375 C 4.53125 -1.191406 4.453125 -0.929688 4.296875 -0.703125 C 4.148438 -0.472656 3.921875 -0.289062 3.609375 -0.15625 C 3.296875 -0.0195312 2.910156 0.046875 2.453125 0.046875 Z M 2.453125 0.046875 "/></g></g></g><g fill="#f4f1ed" fill-opacity="1"><g transform="translate(75.036152, 7.432077)"><g><path d="M 3.359375 0.046875 C 2.796875 0.046875 2.289062 -0.0703125 1.84375 -0.3125 C 1.394531 -0.5625 1.046875 -0.898438 0.796875 -1.328125 C 0.546875 -1.765625 0.421875 -2.253906 0.421875 -2.796875 C 0.421875 -3.328125 0.546875 -3.804688 0.796875 -4.234375 C 1.046875 -4.671875 1.394531 -5.015625 1.84375 -5.265625 C 2.289062 -5.515625 2.796875 -5.640625 3.359375 -5.640625 C 3.910156 -5.640625 4.40625 -5.515625 4.84375 -5.265625 C 5.289062 -5.023438 5.640625 -4.6875 5.890625 -4.25 C 6.148438 -3.8125 6.28125 -3.328125 6.28125 -2.796875 C 6.28125 -2.253906 6.148438 -1.765625 5.890625 -1.328125 C 5.640625 -0.898438 5.289062 -0.5625 4.84375 -0.3125 C 4.40625 -0.0703125 3.910156 0.046875 3.359375 0.046875 Z M 3.359375 -0.484375 C 3.796875 -0.484375 4.191406 -0.582031 4.546875 -0.78125 C 4.910156 -0.976562 5.191406 -1.253906 5.390625 -1.609375 C 5.585938 -1.960938 5.6875 -2.359375 5.6875 -2.796875 C 5.6875 -3.234375 5.585938 -3.628906 5.390625 -3.984375 C 5.191406 -4.335938 4.910156 -4.613281 4.546875 -4.8125 C 4.191406 -5.007812 3.796875 -5.109375 3.359375 -5.109375 C 2.910156 -5.109375 2.503906 -5.007812 2.140625 -4.8125 C 1.785156 -4.613281 1.503906 -4.335938 1.296875 -3.984375 C 1.097656 -3.628906 1 -3.234375 1 -2.796875 C 1 -2.359375 1.097656 -1.960938 1.296875 -1.609375 C 1.503906 -1.253906 1.785156 -0.976562 2.140625 -0.78125 C 2.503906 -0.582031 2.910156 -0.484375 3.359375 -0.484375 Z M 3.359375 -0.484375 "/></g></g></g><g fill="#f4f1ed" fill-opacity="1"><g transform="translate(82.92806, 7.432077)"><g><path d="M 0.90625 -5.59375 L 1.5 -5.59375 L 1.5 -0.515625 L 4.625 -0.515625 L 4.625 0 L 0.90625 0 Z M 0.90625 -5.59375 "/></g></g></g><g fill="#f4f1ed" fill-opacity="1"><g transform="translate(88.825047, 7.432077)"><g><path d="M 3.15625 0.046875 C 2.4375 0.046875 1.875 -0.160156 1.46875 -0.578125 C 1.0625 -0.992188 0.859375 -1.597656 0.859375 -2.390625 L 0.859375 -5.59375 L 1.453125 -5.59375 L 1.453125 -2.40625 C 1.453125 -1.757812 1.597656 -1.273438 1.890625 -0.953125 C 2.179688 -0.640625 2.601562 -0.484375 3.15625 -0.484375 C 3.71875 -0.484375 4.144531 -0.640625 4.4375 -0.953125 C 4.726562 -1.273438 4.875 -1.757812 4.875 -2.40625 L 4.875 -5.59375 L 5.453125 -5.59375 L 5.453125 -2.390625 C 5.453125 -1.597656 5.25 -0.992188 4.84375 -0.578125 C 4.445312 -0.160156 3.882812 0.046875 3.15625 0.046875 Z M 3.15625 0.046875 "/></g></g></g><g fill="#f4f1ed" fill-opacity="1"><g transform="translate(96.341915, 7.432077)"><g><path d="M 2 -5.078125 L 0.03125 -5.078125 L 0.03125 -5.59375 L 4.546875 -5.59375 L 4.546875 -5.078125 L 2.59375 -5.078125 L 2.59375 0 L 2 0 Z M 2 -5.078125 "/></g></g></g><g fill="#f4f1ed" fill-opacity="1"><g transform="translate(102.119201, 7.432077)"><g><path d="M 0.90625 -5.59375 L 1.5 -5.59375 L 1.5 0 L 0.90625 0 Z M 0.90625 -5.59375 "/></g></g></g><g fill="#f4f1ed" fill-opacity="1"><g transform="translate(105.726009, 7.432077)"><g><path d="M 3.359375 0.046875 C 2.796875 0.046875 2.289062 -0.0703125 1.84375 -0.3125 C 1.394531 -0.5625 1.046875 -0.898438 0.796875 -1.328125 C 0.546875 -1.765625 0.421875 -2.253906 0.421875 -2.796875 C 0.421875 -3.328125 0.546875 -3.804688 0.796875 -4.234375 C 1.046875 -4.671875 1.394531 -5.015625 1.84375 -5.265625 C 2.289062 -5.515625 2.796875 -5.640625 3.359375 -5.640625 C 3.910156 -5.640625 4.40625 -5.515625 4.84375 -5.265625 C 5.289062 -5.023438 5.640625 -4.6875 5.890625 -4.25 C 6.148438 -3.8125 6.28125 -3.328125 6.28125 -2.796875 C 6.28125 -2.253906 6.148438 -1.765625 5.890625 -1.328125 C 5.640625 -0.898438 5.289062 -0.5625 4.84375 -0.3125 C 4.40625 -0.0703125 3.910156 0.046875 3.359375 0.046875 Z M 3.359375 -0.484375 C 3.796875 -0.484375 4.191406 -0.582031 4.546875 -0.78125 C 4.910156 -0.976562 5.191406 -1.253906 5.390625 -1.609375 C 5.585938 -1.960938 5.6875 -2.359375 5.6875 -2.796875 C 5.6875 -3.234375 5.585938 -3.628906 5.390625 -3.984375 C 5.191406 -4.335938 4.910156 -4.613281 4.546875 -4.8125 C 4.191406 -5.007812 3.796875 -5.109375 3.359375 -5.109375 C 2.910156 -5.109375 2.503906 -5.007812 2.140625 -4.8125 C 1.785156 -4.613281 1.503906 -4.335938 1.296875 -3.984375 C 1.097656 -3.628906 1 -3.234375 1 -2.796875 C 1 -2.359375 1.097656 -1.960938 1.296875 -1.609375 C 1.503906 -1.253906 1.785156 -0.976562 2.140625 -0.78125 C 2.503906 -0.582031 2.910156 -0.484375 3.359375 -0.484375 Z M 3.359375 -0.484375 "/></g></g></g><g fill="#f4f1ed" fill-opacity="1"><g transform="translate(113.617917, 7.432077)"><g><path d="M 5.578125 -5.59375 L 5.578125 0 L 5.09375 0 L 1.5 -4.53125 L 1.5 0 L 0.90625 0 L 0.90625 -5.59375 L 1.390625 -5.59375 L 5 -1.046875 L 5 -5.59375 Z M 5.578125 -5.59375 "/></g></g></g><g fill="#f4f1ed" fill-opacity="1"><g transform="translate(121.302357, 7.432077)"><g><path d="M 2.453125 0.046875 C 2.035156 0.046875 1.632812 -0.015625 1.25 -0.140625 C 0.875 -0.273438 0.582031 -0.453125 0.375 -0.671875 L 0.609375 -1.140625 C 0.804688 -0.929688 1.070312 -0.765625 1.40625 -0.640625 C 1.75 -0.515625 2.097656 -0.453125 2.453125 -0.453125 C 2.953125 -0.453125 3.328125 -0.539062 3.578125 -0.71875 C 3.828125 -0.90625 3.953125 -1.144531 3.953125 -1.4375 C 3.953125 -1.664062 3.882812 -1.847656 3.75 -1.984375 C 3.613281 -2.117188 3.445312 -2.21875 3.25 -2.28125 C 3.050781 -2.351562 2.773438 -2.429688 2.421875 -2.515625 C 2.003906 -2.628906 1.671875 -2.734375 1.421875 -2.828125 C 1.171875 -2.929688 0.957031 -3.082031 0.78125 -3.28125 C 0.601562 -3.476562 0.515625 -3.753906 0.515625 -4.109375 C 0.515625 -4.390625 0.585938 -4.644531 0.734375 -4.875 C 0.878906 -5.101562 1.109375 -5.285156 1.421875 -5.421875 C 1.734375 -5.566406 2.117188 -5.640625 2.578125 -5.640625 C 2.890625 -5.640625 3.195312 -5.59375 3.5 -5.5 C 3.8125 -5.414062 4.078125 -5.296875 4.296875 -5.140625 L 4.109375 -4.671875 C 3.867188 -4.828125 3.613281 -4.941406 3.34375 -5.015625 C 3.082031 -5.097656 2.828125 -5.140625 2.578125 -5.140625 C 2.085938 -5.140625 1.71875 -5.039062 1.46875 -4.84375 C 1.21875 -4.65625 1.09375 -4.414062 1.09375 -4.125 C 1.09375 -3.894531 1.160156 -3.710938 1.296875 -3.578125 C 1.429688 -3.441406 1.597656 -3.335938 1.796875 -3.265625 C 2.003906 -3.191406 2.285156 -3.113281 2.640625 -3.03125 C 3.046875 -2.925781 3.375 -2.828125 3.625 -2.734375 C 3.882812 -2.640625 4.097656 -2.488281 4.265625 -2.28125 C 4.441406 -2.082031 4.53125 -1.816406 4.53125 -1.484375 C 4.53125 -1.191406 4.453125 -0.929688 4.296875 -0.703125 C 4.148438 -0.472656 3.921875 -0.289062 3.609375 -0.15625 C 3.296875 -0.0195312 2.910156 0.046875 2.453125 0.046875 Z M 2.453125 0.046875 "/></g></g></g><g fill="#f4f1ed" fill-opacity="1"><g transform="translate(127.406812, 7.432077)"><g/></g></g><g fill="#f4f1ed" fill-opacity="1"><g transform="translate(130.694434, 7.432077)"><g><path d="M -0.15625 -1.84375 L -0.15625 -2.25 L 4.953125 -2.25 L 4.953125 -1.84375 Z M -0.15625 -1.84375 "/></g></g></g></g></g></svg>